<!-- Generator: Adobe Illustrator 23.0.4, SVG Export Plug-In  -->
<svg version="1.1" xmlns="http://www.w3.org/2000/svg" xmlns:xlink="http://www.w3.org/1999/xlink" x="0px" y="0px" width="293px"
	 height="155px" viewBox="0 0 293 155" style="enable-background:new 0 0 293 155;" xml:space="preserve">
<style type="text/css">
	.st0{fill:#231F20;}
	.st1{fill:#0097CC;}
</style>
<defs>
</defs>
<g>
	<path class="st0" d="M18.4,24.4L15.2,15H6.6L3,24.4H0L9.6,0.5h3.9l8.4,23.9H18.4z M11.2,3.1l-3.7,9.7h6.9L11.2,3.1z"/>
	<path class="st0" d="M33.8,13.2c0-1.3-0.4-4.2-3.8-4.2c-3.8,0-4.4,4.3-4.4,7.1c0,1.9,0.3,6.8,4.3,6.8c1.6,0,3.6-0.7,3.9-4.1h2.9
		c0,0.6-0.3,6-6.8,6c-4.6,0-7.3-2.7-7.3-8.7c0-4.3,1.5-8.9,7.5-8.9c3.6,0,6.6,1.5,6.6,6.1H33.8z"/>
	<path class="st0" d="M50.6,13.2c0-1.3-0.4-4.2-3.8-4.2c-3.8,0-4.4,4.3-4.4,7.1c0,1.9,0.3,6.8,4.3,6.8c1.6,0,3.6-0.7,3.9-4.1h2.9
		c0,0.6-0.3,6-6.8,6c-4.6,0-7.3-2.7-7.3-8.7c0-4.3,1.5-8.9,7.5-8.9c3.6,0,6.6,1.5,6.6,6.1H50.6z"/>
	<path class="st0" d="M67.7,24.4v-2c-0.9,0.8-2.7,2.3-5.6,2.3c-1,0-2.1-0.1-3.2-1c-1.7-1.3-1.9-3.2-1.9-5.2V7.4h2.9v10.3
		c0,2.3,0.2,5,3.5,5c1.1,0,2.6-0.4,3.4-1.2c0.8-0.9,1-1.6,1-2.7V7.4h2.9v16.9H67.7z"/>
	<path class="st0" d="M74.7,16.8v-2.3h10v2.3H74.7z"/>
	<path class="st0" d="M103.4,7.9V7.6c0-3-1.6-5.5-5.5-5.5c-5.7,0-6.4,5.8-6.4,11.4c0,3.6,0.4,9.3,6.1,9.3c4.2,0,5.8-3,6-5.8h3.2
		c-0.4,4.3-2.9,7.8-9.5,7.8c-7.6,0-9.2-5.2-9.2-11.7C88.1,5.3,90.2,0,98,0c6.2,0,8.6,3.2,8.6,7.4v0.5H103.4z"/>
	<path class="st0" d="M120.6,24.4V13.5c0-3.1-1-4.5-3.4-4.5c-2.2,0-4.3,1.2-4.3,3.9v11.5H110V0.5h2.9v8.9c0.8-0.7,2.6-2.3,5.6-2.3
		c3.4,0,5,2.1,5,5.3v12H120.6z"/>
	<path class="st0" d="M130.4,16c0,2.1,0.1,6.8,4.4,6.8c1.1,0,3.7-0.4,3.9-3.6h2.9c0,2.9-2.3,5.5-6.9,5.5c-5.3,0-7.4-3.5-7.4-8.3
		c0-5.5,2.2-9.3,7.6-9.3c4.3,0,6.8,2.5,6.8,7.9v0.8h-11.3V16z M138.8,14.1c0-1-0.1-5.1-3.9-5.1c-2.4,0-4.2,1.7-4.4,5.1H138.8z"/>
	<path class="st0" d="M156.6,24.4l-5.9-8.7l-2.5,2.6v6.1h-2.9V0.5h2.9v14.8l6.8-7.8h3.3l-5.7,6.2l7.4,10.8H156.6z"/>
	<g>
		<path class="st1" d="M119.5,67.6l0.1,2.2l0.1,2.2l-0.1,4.3c-0.2,5.5-1.2,11-2.9,16.7l-0.2,0.6l-0.1,0.1v0.3l-0.9,2.2l-1,2.3
			l-1,2.2c-0.3,0.9-0.7,1.6-1,2.2l-0.5,1l-0.1,0.1c-0.6,1.2-1.1,2.3-1.6,3.2l-0.8,1.5l-0.8,1.5c-0.3,0.4-0.9,1.4-1.7,2.8
			c-0.3,0.5-0.7,1.2-1.2,2l-0.7,1l-0.6,1c-1,1.5-1.9,3-2.9,4.4c-1.1,1.6-1.8,2.7-2.2,3.3l-2.4,2.7l-2.4,2.7
			c-2.1,2.4-3.8,4.2-5.1,5.5c-4.1,4.3-7.9,7.5-11.3,9.6c-0.6,0.6-1.2,1.1-2,1.6c-0.8,0.5-1.6,1.1-2.3,1.6c-2.1,1-3.7,1.8-4.8,2.3
			c-1.8,0.8-3.5,1.5-5,2c-3.6,1.3-6.9,2-10,2h-0.3c-0.9,0.2-1.9,0.3-2.9,0.3c-0.4,0-0.8,0-1.3-0.1c-1.6-0.2-3.1-0.5-4.6-1
			c-1.7-0.6-3.2-1.4-4.6-2.4c-1.5-1.1-2.7-2.4-3.6-3.9c-1.2-1.9-1.8-4.1-1.8-6.5v-0.3c0-1.9,0.5-3.9,1.3-6c0.6-1.5,1.4-3.1,2.4-4.9
			c0.1-0.2,0.2-0.4,0.4-0.6l0.4-0.6l0.8-1.3l1-1.1l0.9-1.1l0.6-0.4l0.6-0.4c0.5-0.4,0.9-0.6,1.1-0.8c0-0.2,0.3-0.7,1-1.5
			c0.3-0.1,0.7-0.3,1.2-0.6l0.6-0.4l0.7-0.4c0.4-0.3,0.8-0.6,1.4-1l1.6-1c2.5-1.5,4.6-2.5,6.4-3c0.3-0.3,0.6-0.6,1-0.8l0.4-0.2
			l0.4-0.3c1.1-0.4,2.2-0.8,3.3-1.2c0.1-0.7,0.2-1.3,0.2-1.9c0.1,0,0.3-0.1,0.4-0.3l0.2-0.4c0.2-0.3,0.4-0.4,0.6-0.4l-0.3-0.8
			c0.3-0.6,0.6-1.3,0.8-2.2l0.3-1.2l0.2-1.2c0.4-2.2,0.9-3.6,1.4-4.4c0,0.1,0.1,0.2,0.1,0.3v0.1l-0.1,0.4c-0.1,0.2-0.1,0.3-0.1,0.5
			c0,0.1,0,0.2,0.1,0.3c-0.1,0-0.1,0.1-0.1,0.1h0.1v-0.1c0.2-0.1,0.3-0.2,0.4-0.4l0.1-0.3v-0.3c0.1-0.5,0.3-0.9,0.6-1
			c0,0.1-0.1,0.2-0.1,0.3c0,0.3,0.1,0.5,0.3,0.6l0.3,0.3c0,0.1,0.1,0.3,0.1,0.4c0,0-0.1-0.1-0.2-0.2c0-0.1,0-0.1-0.1-0.2
			c0,0-0.1,0-0.3,0.1c-0.2,0.1-0.3,0.2-0.3,0.4c0,0.1,0,0.2,0.1,0.3l0.1,0.3c0,0.1,0.1,0.1,0.1,0.2c-0.5,0-1,0.2-1.3,0.7
			c-0.3,0.3-0.4,0.6-0.4,0.8s0.1,0.5,0.3,0.6c0.1-0.1,0.1-0.3,0.1-0.6v-0.3l0.1-0.3h0.3c0,0,0.1-0.1,0.1-0.2c0-0.1,0.1-0.1,0.1-0.1
			c0,0,0.1,0,0.1,0.1c0,0.3-0.1,0.6-0.2,1l-0.1,0.4l-0.1,0.4c0,0.2-0.1,0.4-0.1,0.6c0,0.4,0.1,0.8,0.3,1.2l-1,0.2
			c0,0.2,0.1,0.3,0.3,0.3l0.2,0.1c0.1,0,0.1,0,0.1,0.1c-0.1,0.2-0.1,0.3-0.1,0.4s0,0.3,0.1,0.4c-0.1,0.2-0.3,0.3-0.6,0.3h-0.1
			c0,0.2,0.1,0.3,0.2,0.4l0.1,0.2l0.1,0.1c0,0-0.1,0.1-0.3,0.1l-0.3,0.1c-0.3,0.1-0.4,0.2-0.4,0.4c0.2,0,0.3-0.1,0.4-0.1
			c0.2,0,0.3,0.1,0.3,0.2c-0.2,0-0.4,0.1-0.6,0.3l-0.2,0.1l-0.3,0.1v1.1l0.1,0.6l0.1,0.5l0.8-0.3l1-3.3c0.4-1.3,0.7-2.5,1-3.4
			c-0.1-0.1-0.1-0.3-0.1-0.4c0-0.1,0-0.3,0.1-0.4c0.1-0.3,0.3-0.5,0.5-0.7c0-0.8,0.2-1.6,0.4-2.5l0.3-1.1l0.3-1.1
			c0.6-2,0.9-3.7,1-5.1c0.1,0,0.1-0.1,0.2-0.3l0.1-0.3c0.1-0.3,0.3-0.4,0.5-0.5l-0.3-0.3l-0.3-0.3c0-0.1-0.1-0.2-0.1-0.3
			c0-0.2,0-0.3,0.1-0.4l0.2,0.6c0.3-0.3,0.5-0.7,0.6-1.2l0.1-0.7l0.1-0.6c-0.3,0-0.4,0.1-0.4,0.3v0.3c0,0.1,0,0.1-0.1,0.2
			c-0.1,0.2-0.2,0.3-0.3,0.3l0.1-0.1l0.1-0.1c-0.6,0.3-1,0.9-1.2,1.8l-0.1,0.6l-0.1,0.6c-0.1,0.4-0.2,0.7-0.4,0.9l-0.1-0.3h-0.2
			l-0.3-0.1c0.1,0.3,0.3,0.5,0.4,0.5c0,0,0.1,0,0.2-0.1V95c0,0.1,0.1,0.1,0.2,0.2l0.2,0.1c0,0.1,0.1,0.2,0.1,0.3l-0.6,0.1v0.4
			c0,1.1-0.3,2.5-1,4.1v-0.8l0.2-0.8c0.1-0.4,0.2-0.8,0.2-1c0-0.1,0-0.2-0.1-0.3c-0.1,0.2-0.2,0.4-0.3,0.6l-0.2,0.8
			c-0.1,0.6-0.3,1-0.6,1.1c0.2-0.6,0.3-1.3,0.5-2.2l0.5-2.2c0.4-1.8,0.7-3.1,1-4V91c0.1-0.3,0.2-0.5,0.2-0.8l0.1-0.9V89l0.3-1.8
			l0.4-0.1c0-0.2,0-0.3-0.1-0.3h-0.2l-0.1-0.1v-0.3c0.1-0.1,0.1-0.2,0.2-0.3v-0.3c0-0.3,0.1-0.5,0.3-0.6c0.3-2.7,0.7-6,1.3-10
			l0.7-4.9l0.6-4.9c-0.1-1.7-0.2-3.5-0.2-5.4c0-1.7,0.2-3.4,0.4-5.1c-0.2-0.8-0.3-1.6-0.3-2.5v-2.9c0-1.7-0.2-3.2-0.6-4.4
			c0-0.2,0-0.3,0.1-0.4l0.2-0.4c0.1-0.2,0.1-0.3,0.1-0.4c0-0.2-0.1-0.3-0.2-0.5c0.5-0.4,1.1-0.6,1.8-0.6h0.5l0.5-0.1
			c0.5,0,0.9,0,1.2-0.1c0.8,0.3,1.5,0.7,2,1.3c0.4,0.4,0.6,0.8,0.6,1.2c0,0.3-0.1,0.6-0.3,0.9c0.3,1,0.5,2,0.6,3.1
			c0,0.4,0.1,0.8,0.1,1.3c0,0.5,0,1.1-0.1,1.7l-0.1,1.5l-0.1,1.5v0.7c0,0.9,0.1,1.7,0.2,2.5c-0.2,0.2-0.3,0.4-0.3,0.6l-0.1,0.6
			c0,0.5-0.2,1-0.5,1.3c0,0.3,0.1,0.5,0.3,0.6l0.2,0.2l0.2,0.2h-0.4c-1,8.6-2,16-3.1,22.3L75,84.2h-0.1v0.1
			c-0.3,0.9-0.6,1.9-0.9,3.1L74,87.8v0.1L73.7,89c-0.1,0.4-0.1,0.8-0.1,1.1c-0.1,0.2-0.2,0.5-0.3,1.1c-0.1,0.4-0.2,0.9-0.3,1.6
			c-0.1,0.7-0.2,1.3-0.3,1.8c-0.1,0.7-0.1,1.1-0.1,1.4c-0.5,1-1,2.6-1.4,4.8l-0.3,1.3l-0.3,1.3c-0.3,0.9-0.5,1.6-0.8,2.3
			c0,0.1,0.1,0.3,0.1,0.4c0,0.2,0,0.3-0.1,0.5l-0.1,0.4v0.4c-0.3,0.6-0.6,1.3-0.9,2.2l-0.3,1.1l-0.3,1.1l2-0.5
			c3.8-0.8,7.2-1.1,10.1-1.1h0.4c0.4,0.2,0.6,0.5,0.6,0.8c0,0.1,0,0.3-0.1,0.4l-0.1,0.3l-0.1,0.3c0,0.3,0.1,0.5,0.3,0.6
			c-0.3,0.1-0.5,0.2-0.8,0.4l-0.3,0.3c-0.1,0-0.3,0.1-0.4,0.2c0.1,0,0.2,0.1,0.3,0.1c0.2,0,0.4,0,0.7-0.1l-0.4,1.3l-0.8,0.4
			l-0.4,0.2l-0.4,0.3c-0.5,0.2-1.2,0.4-2.2,0.6c-0.7,0.1-1.5,0.2-2.5,0.3l-2.5,0.3c-1.9,0.2-3.6,0.6-5,1.1l-0.4,0.1l-0.3,1
			c-0.1,0.5-0.2,1.1-0.4,1.7l-0.5,1.6c-0.5,1.4-0.8,2.6-0.9,3.4c-0.1,0.1-0.2,0.2-0.3,0.4l-0.2,0.2l-0.2,0.2c0.1,0,0.3,0.3,0.4,0.6
			c-0.4,0.3-0.7,0.9-1,2l-0.2,0.6l-0.3,0.6c-0.2,0.4-0.4,0.8-0.6,1.1c0.1,0.2,0.1,0.3,0.1,0.4v0.3c-0.4,0.9-1,2.2-1.7,3.7l-0.8,1.7
			l-0.8,1.8c-0.2,0-0.4,0.1-0.6,0.1c-0.2,0-0.4,0-0.7-0.1l-0.6-0.2c-0.1,0-0.2-0.1-0.3-0.1c-0.1,0-0.2,0-0.3,0.1l-0.1-0.2l-0.1-0.1
			c-0.2-0.1-0.3-0.3-0.3-0.4c0,0-0.1,0.1-0.1,0.1v0.3l-1.2-0.4l-0.3-0.4l-0.2-0.4c-0.1-0.2-0.1-0.3-0.1-0.5c0-0.1,0-0.3,0.1-0.4
			c0.1-0.3,0.2-0.7,0.4-1l0.6-0.9c0.6-0.7,1-1.3,1.1-1.8v-0.2l0.3-0.7c0.2-0.2,0.3-0.4,0.3-0.6l0.3-1.2l0.4-1.2
			c0.3-0.9,0.7-1.6,1.2-2c-0.1-0.2-0.1-0.4-0.1-0.6c0-0.3,0.1-0.6,0.3-0.9l0.4-0.7c0.2-0.3,0.3-0.5,0.4-0.6c0.1-0.2,0.1-0.4,0.1-0.6
			l0.1-0.3v-0.3c0-0.3,0.2-0.5,0.6-0.5l-0.2-0.7c0.2-0.3,0.4-0.4,0.6-0.6l0.3-1.3c-1.2,0.6-2.5,1.2-3.7,1.8l-1.5,0.7l-1.3,0.7
			c-0.5,0.2-0.9,0.4-1.3,0.5l-0.6,0.3l-0.5,0.2c-0.7,0.8-1.7,1.7-3,2.6l-1.6,1.1c-0.6,0.4-1,0.8-1.4,1.2c-0.5,0.5-0.8,0.9-1,1.1
			l-0.3,0.6l-0.3,0.5l-0.3,0.4l-0.3,0.4c-0.2,0.2-0.4,0.3-0.7,0.4c-0.1,0.3-0.1,0.6-0.2,0.8c-0.1,0.3-0.1,0.5-0.2,0.8
			c-0.5,0.7-0.8,1.2-1.1,1.5c-0.8,2-1.1,3.8-1.1,5.3c0,0.5,0,0.9,0.1,1.3c0.2,1.1,0.6,2.1,1.2,3c0.6,0.9,1.4,1.7,2.4,2.3
			c0.9,0.6,1.9,1.1,3.1,1.5c1.1,0.3,2.3,0.5,3.4,0.6c0.5,0,1,0.1,1.5,0.1c1.8,0,3.6-0.3,5.4-0.9c0.2,0,0.4,0.1,0.6,0.1h0.4l0.6-0.1
			l0.6-0.1c0.4-0.1,0.8-0.1,1.1-0.2c0.3,0,0.5,0,0.6,0.1c0.2-0.2,0.4-0.4,0.6-0.4l0.1-0.1l0.3-0.1c0.2-0.1,0.4-0.3,0.7-0.4
			c3.9-1,7.9-3.1,12.1-6.2c1.5-1.1,3.3-2.5,5.3-4.2l1.3-1l1.2-1c0.9-0.8,1.7-1.5,2.3-2c-0.3,0.6-0.8,1.2-1.6,1.7l-0.8,0.7
			c-0.3,0.3-0.6,0.6-0.8,1c-0.1,0-0.2,0.1-0.3,0.1v0.1l0.1-0.1c0.1,0,0.2-0.1,0.3-0.2c0.4-0.1,0.8-0.4,1.2-0.8l0.6-0.6l0.6-0.6
			c1.1-1.1,1.9-1.7,2.4-1.8c-0.7,0.6-1.1,1.3-1.4,1.9l-0.1,0.4l-0.2,0.3c-0.1,0.3-0.3,0.5-0.6,0.8h-0.1v-0.1l0.1-0.2l0.1-0.2
			c0.1-0.2,0.1-0.3,0.1-0.3c0,0,0-0.1-0.1-0.1c0,0-0.1,0-0.3,0.1c-0.5,0.1-1,0.5-1.4,1.1l-0.3,0.3l-0.2,0.3
			c-0.1,0.2-0.2,0.4-0.3,0.4c-0.1,0-0.2-0.1-0.4-0.1c-0.5,0-1.3,0.3-2.5,1l-0.9,0.6l-0.9,0.6c-0.6,0.5-1,1-1.3,1.5
			c0.3-0.2,0.8-0.5,1.3-1l0.7-0.6c0.3-0.3,0.5-0.4,0.6-0.6c0,0.1,0.1,0.1,0.2,0.1c0.1,0,0.2,0,0.3-0.1c0.1,0,0.3-0.1,0.5-0.3
			c0.2-0.1,0.3-0.2,0.4-0.2v0.1c-0.5,0.5-1.3,1.1-2.2,1.8l-1,0.8l-1,0.6c-0.8,0.5-1.4,1-1.9,1.5c-0.5,0.4-1.1,1-1.8,1.8l-1.5-0.2
			c-0.3,0.2-0.4,0.3-0.4,0.4c0,0,0,0.1,0.1,0.1l0.1,0.1l0.1,0.1c0,0.1-0.1,0.2-0.3,0.3c-1,0.4-1.7,0.8-2,1.3c-0.3,0-0.5,0.1-0.6,0.1
			c-0.3,0-0.6-0.1-0.7-0.2c-0.5,0.3-0.8,0.5-1,0.8L66,149l-0.3,0.2c-0.2,0-0.4,0.1-0.6,0.1l-0.3-0.1l-0.3-0.1
			c-0.1,0-0.2-0.1-0.3-0.1c-0.3,0-0.7,0.1-1.2,0.3l0.4,0.1c0.2,0,0.3,0.1,0.3,0.1l0.1,0.1c0,0.1-0.1,0.2-0.4,0.3
			c-0.3-0.1-0.6-0.1-1.1-0.1h-1.2l-1.6,0.5l-1.5,0.6l-1.5,0.5l-0.8,0.2l-0.8,0.2c-0.9,0.2-1.8,0.3-2.6,0.3c-1.3,0-2.5-0.3-3.7-0.8
			h-0.5c-1.5,0-2.5-0.3-3.1-1c0,0,0.1-0.1,0.1-0.1c0-0.2-0.2-0.4-0.6-0.6l-0.4-0.2l-0.4-0.2c-0.3-0.2-0.6-0.3-0.7-0.4l0.1,0.2
			c0,0,0.1,0.1,0.1,0.1c0,0,0,0.1-0.1,0.1c0,0,0,0.1-0.1,0.1c-0.1,0-0.3-0.1-0.6-0.2l-0.1-0.2l-0.3-0.3l-0.4-0.5
			c-0.2-0.3-0.3-0.6-0.3-0.8v-0.2c-0.9-0.5-1.6-1.3-2.2-2.4c-0.5-1.1-0.8-2.4-0.8-4c0.1,0.2,0.2,0.3,0.3,0.3c0.2,0,0.4-0.2,0.6-0.6
			c0-0.5-0.1-0.7-0.3-0.7h-0.1l-0.2,0.1h-0.1c-0.1,0-0.1-0.2-0.1-0.5c0-1.1,0.3-2.1,0.8-3c0.2-0.3,0.5-0.6,0.8-1l0.8-0.9
			c-0.1,0-0.1,0.1-0.2,0.1c-0.1,0-0.1,0-0.2-0.1c0,0-0.1-0.1-0.1-0.2c0-0.1,0.1-0.3,0.2-0.6c0.3-0.3,0.5-0.8,0.9-1.5l0.5-0.8
			l0.5-0.8c0.7-1.2,1.5-2.1,2.5-2.6c-0.2,0.2-0.5,0.6-0.8,1.1c0.3-0.2,0.8-0.6,1.3-1.2l0.7-0.8l0.6-0.8c0.4-0.5,0.9-1,1.5-1.5
			c0.3-0.3,0.6-0.4,0.8-0.6c0.3-0.1,0.6-0.2,1-0.3c-0.3,0.3-0.4,0.4-0.4,0.5h0.2c0.1,0,0.2-0.1,0.3-0.3v-0.1c0-0.1,0-0.1-0.1-0.2
			c0.8-0.8,1.9-1.7,3.4-2.5c1.6-0.9,2.9-1.4,3.9-1.4c0.5-0.6,1.2-1.1,2.2-1.6c0.7-0.4,1.4-0.6,2.1-0.6l0.3-0.8
			c-4,1.5-7.7,3.2-10.9,5.3c-2.5,1.6-4.7,3.2-6.5,5l-1.5,1.6l-0.6,0.8l-0.6,1c-0.7,1.1-1.4,2.3-2,3.7c0,0,0.1-0.1,0.1-0.1
			c0,0,0.1,0.1,0.1,0.3c0,0.1,0,0.3-0.1,0.5c0-0.1-0.1-0.1-0.2-0.1l-0.3,0.1c-1.1,2.4-1.7,4.5-1.7,6.4v0.3c0,1.1,0.2,2.2,0.6,3.3
			c0.5,1.2,1.3,2.3,2.3,3.1l0.1,0.6c1.2,1.1,2.7,2,4.5,2.7c1.4,0.5,3,0.9,4.7,1.1c0.9,0.1,1.8,0.1,2.7,0.1c0.7,0,1.4,0,2-0.1
			l1.1-0.1l1.1-0.2l1.1-0.2l1.1-0.2c2.7-0.5,5.5-1.5,8.5-2.8c2.8-1.3,5.5-2.7,8-4.4c0.4-0.5,1-1,1.8-1.6c0.7-0.4,1.3-0.8,2-1.1
			c3.9-3.4,7.4-6.7,10.5-9.9c3.8-3.9,7-7.8,9.4-11.6c0.2-0.1,0.3-0.2,0.5-0.4l0.5-0.6c0.5-0.6,0.9-1,1.3-1.2
			c0.2-1.3,0.5-2.2,1.1-2.9c-0.1,0.2-0.2,0.4-0.3,0.6l-0.3,0.7c0.7-0.6,1.5-1.6,2.3-3c0.3-0.5,0.7-1,1-1.6l0.4-0.8l0.4-0.8
			c-0.3,0-0.6,0.3-0.9,0.9l-0.4,0.7c-0.1,0.3-0.3,0.4-0.4,0.5c-0.4,0.4-0.6,0.7-0.8,0.7c0-0.1,0.1-0.2,0.3-0.3l0.3-0.3
			c-0.6,0.3-1.3,0.9-2,1.8l-1,1.3l-0.9,1.3c-1.6,2.4-2.8,4-3.8,4.8l0.4-0.8c0,0-0.1,0-0.2-0.1l-0.1-0.1h-0.1l-0.3,0.6
			c-0.1,0.2-0.1,0.4-0.1,0.4v0.1c0,0,0,0.1,0.1,0.1c0.1,0,0.2-0.1,0.4-0.2c-0.1,0.2-0.2,0.3-0.2,0.4c0,0.1,0,0.1,0.1,0.2
			c0,0,0.1,0.1,0.1,0.1c0,0,0,0.1-0.1,0.1c0,0.1-0.1,0.3-0.3,0.6l-0.9,0.2c-2,3.2-4.8,6.4-8.5,9.6c0.4-0.5,0.9-1.1,1.5-1.8l0.8-0.8
			l0.8-0.8c1.2-1.3,1.9-2.2,2.2-2.9c-0.3,0.3-0.7,0.7-1.3,1.3l-0.7,0.8l-0.8,0.8c-1.2,1.3-2,2-2.5,2.2c2.5-2.6,5.2-5.7,8.1-9.4
			c2.3-2.9,4.5-6,6.8-9.3l-0.1,0.1l0.3-0.4l0.4-0.8c0.5-0.7,0.9-1.3,1.2-1.8l1.1-2.2l0.1-0.1l-0.1,0.1l0.4-0.8l1.1-2.3l0.6-1.1
			l0.5-1.1c0.3-0.2,0.5-0.4,0.8-0.6c0.1-0.2,0.1-0.3,0.1-0.4c0-0.1,0-0.2-0.1-0.2h-0.1c0,0-0.1-0.1-0.1-0.1l0.2-0.4l0.1-0.3
			c0.2-0.2,0.3-0.4,0.5-0.8l0.3-1c0.3-0.8,0.6-1.4,0.9-1.6c1.6-4.7,2.9-9.3,3.6-13.8c0.5-3.3,0.8-6.7,0.8-10c0-1.3,0-2.6-0.1-3.9
			c-0.2-4.6-1.1-9.1-2.7-13.4c-1.6-4.5-3.9-8.4-6.9-11.5C98.6,39.6,91.6,37,83.5,37c-1.3,0-2.6,0.1-3.9,0.2c-2,0.5-4,1.1-6,1.8
			c-2.2,0.8-4,1.6-5.5,2.3c-2.1,1.1-3.8,2.2-5,3.2c-1.8,1.4-3.2,2.9-4.2,4.4c-0.2,0.3-0.5,0.5-0.8,0.8l-0.8,0.6l-0.4,0.4l-0.3,0.4
			c-0.3,0.4-0.4,0.8-0.6,1.1l-0.4,0.3l-0.4,0.2c-0.2,0.1-0.4,0.2-0.6,0.3c-0.2,0-0.4,0.1-0.7,0.1h-0.4L53,53l-0.6-0.1
			c-0.3,0-0.6-0.1-0.9-0.1h-0.4c-0.2-0.4-0.3-0.8-0.4-1.4c0-0.2-0.1-0.4-0.1-0.7c0-0.5,0.1-1,0.2-1.5c0.3-0.9,0.6-1.7,1.1-2.4
			c0.3-0.4,0.6-0.8,1-1.2l0.6-0.6l0.7-0.6c1.7-2.4,3.9-4.5,6.4-6.3c2.3-1.6,4.9-3.1,7.7-4.2c2.7-1.1,5.6-2,8.6-2.6
			c2.8-0.6,5.9-0.9,9.3-0.9c0.5,0.2,1.2,0.3,1.9,0.4l1,0.2l1,0.1l1,0.2l1,0.3l1,0.4l1,0.5c0.8,0.2,1.4,0.3,1.8,0.3h1.1
			c0,0,0.1,0,0.1,0.1c0,0,0,0.1-0.1,0.1l-0.1,0.1l0.1,0.1c2.6,1.1,5,2.4,7.2,4.1c2.3,1.7,4.3,3.7,6.2,6c3.5,4.4,6,9.5,7.7,15.5
			C118.7,61.9,119.2,64.7,119.5,67.6z M106.6,111.8c0.5-0.8,0.7-1.4,0.8-1.8l-2.5,3.6l-2.4,3.6c-2,3.1-3.7,5.5-5,7.2
			c-0.3,0.4-0.9,1-1.6,1.8l-1,1l-1,1l-2.4,2.7l-2.5,2.8c-1.9,2.1-3.8,3.9-5.5,5.4c-2.1,1.8-4.2,3.5-6.3,4.9
			c-2.4,1.7-4.8,3.2-7.2,4.5c-0.6,0.3-1.1,0.6-1.7,0.9l-1.8,0.8l-1.8,0.6c-0.7,0.3-1.4,0.4-1.9,0.6c-0.6,0.2-1.2,0.3-2,0.5l-2,0.4
			l-1,0.2l-1,0.1l-1,0.1l-1.1,0.1c-0.9,0.1-1.7,0.1-2.2,0.2h-2.4c-1.9-0.1-3.6-0.4-5.1-1c-1.8-0.7-3.3-1.7-4.5-2.9
			c-1.4-1.4-2.4-3.1-3-5.1c-0.3-0.9-0.4-1.8-0.4-2.8c0-0.6,0-1.1,0.1-1.6c0.1-1.2,0.5-2.6,1-4c0.4-1,0.9-2.2,1.5-3.6l0.9-1.7l1-1.7
			l0.5-0.4l0.5-0.5l0.5-0.6l0.5-0.6c-0.3,0-0.6,0.3-1,0.8l-0.4,0.6l-0.6,0.8l-0.1,0.1c-0.3,0.3-0.5,0.7-0.8,1l-0.3,0.4l-0.3,0.4
			c-0.5,0.7-0.9,1.2-1.1,1.7c0-0.2,0.1-0.3,0.1-0.3c0-0.1,0-0.1-0.1-0.1c0,0-0.1,0.1-0.3,0.3c-0.1,0.1-0.1,0.2-0.1,0.3h0.1
			c0,0,0.1,0,0.3-0.1c-1,1.9-1.7,3.6-2.1,5.2c-0.3,1.3-0.4,2.5-0.4,3.7c0,0.9,0.1,1.8,0.3,2.6c0.5,2.2,1.6,4.1,3.4,5.7
			c1.5,1.4,3.3,2.5,5.5,3.2c1.8,0.6,3.7,0.9,5.8,1c0.9,0,1.9,0,2.9-0.1l1.5-0.2l1.4-0.2c3.6-0.6,7.1-1.7,10.7-3.3
			c6-2.7,12-6.8,17.9-12.4c4.9-4.7,9.5-10,14-16c0.2-0.1,0.4-0.3,0.6-0.5l0.5-0.7c0.4-0.6,0.7-0.9,1.1-1c0.2-0.6,0.5-1.4,1.1-2.4
			c0.5-0.8,1.1-1.7,1.8-2.6l0.9-1.3C106.2,112.5,106.5,112.1,106.6,111.8z M39.1,141.8v-0.1c0,0.1-0.1,0.2-0.1,0.3l-0.1,0.1v0.3
			C39,142.2,39.1,142,39.1,141.8z M45.7,124.4c0,0.2-0.2,0.4-0.4,0.7l-0.4,0.3l-0.3,0.3c-0.2,0.2-0.3,0.4-0.3,0.4c0,0,0,0.1,0.1,0.1
			h0.1c4.2-3.7,8.2-6.3,11.9-7.7c1.8-1.1,3.7-1.9,5.8-2.7l0.3-0.8l-3.3,1c-0.3,0.1-0.5,0.3-0.7,0.6l-0.3,0.3l-0.3,0.3
			c-1.1,0.3-2.1,0.6-3,1.1l-1.6,0.8l-0.8,0.5l-0.8,0.5c-0.8,0.5-1.8,1.2-3.1,2.2l-1.5,1.1L45.7,124.4z M45.6,149.3
			c-0.3-0.1-0.5-0.2-0.6-0.2c-0.1,0-0.1,0-0.1,0.1v0.1c0.6,0.3,1.2,0.5,1.6,0.6v-0.1c0-0.1-0.1-0.2-0.3-0.3
			C46,149.4,45.8,149.3,45.6,149.3z M53.8,151.7c0.2,0,0.4-0.1,0.6-0.2l-0.4-0.3c-0.2,0.1-0.4,0.1-0.6,0.2c-0.2,0-0.4,0.1-0.6,0.1
			l0.5,0.3C53.4,151.7,53.6,151.7,53.8,151.7z M52.9,150.7c0,0,0.1,0.1,0.2,0.1c0.2,0,0.4,0,0.6-0.1c0,0-0.1-0.1-0.1-0.1
			c0,0-0.1,0-0.2,0.1L52.9,150.7z M55.3,151.2c-0.2,0-0.4,0.1-0.6,0.2l0.4,0.3c0.2-0.1,0.4-0.1,0.6-0.2L55.3,151.2z M57,136.5
			l-0.1-0.2c0,0,0-0.1,0.1-0.1c0-0.1-0.1-0.2-0.1-0.3c-0.1,0-0.1,0-0.2,0.1v0.2l0.1,0.2C56.9,136.5,56.9,136.5,57,136.5z
			 M57.7,133.9c0,0.3-0.1,0.5-0.3,0.9l-0.3,0.5c-0.1,0.2-0.2,0.4-0.2,0.6l0.5-0.6l0.5-0.6c0.3-0.4,0.4-0.7,0.4-1
			c0-0.1,0-0.2-0.1-0.3h0.1c0.9-2.1,1.7-3.9,2.3-5.5c0.8-2,1.4-3.9,1.8-5.6h-0.1c-0.1,0-0.2-0.1-0.3-0.3c0.1,0,0.2,0.1,0.3,0.1h0.2
			l0.3-0.8l0.4-0.8c0.3-0.6,0.5-1.2,0.6-1.6c-0.3,0.1-0.5,0.2-0.8,0.4l-0.2,0.1c-0.1,0.3-0.1,0.6-0.1,0.8c-0.1-0.1-0.3-0.2-0.5-0.2
			c-0.1,0-0.3,0-0.4,0.1c0,0.1,0,0.2,0.1,0.3h0.3c0.3,0,0.4,0.1,0.4,0.3v0.3c0,0.3-0.1,0.5-0.3,0.8l-0.4,0.3l-0.4,0.3h0.1
			c0.1,0,0.1,0,0.2,0.1c0.1,0,0.2,0.1,0.2,0.3c-0.1,0.1-0.2,0.3-0.3,0.5l-0.1,0.7c-0.1,0.5-0.3,0.9-0.6,1.1c0,0,0.1-0.1,0.1-0.2
			c0-0.1,0-0.2-0.1-0.3c-0.2,0.1-0.3,0.3-0.3,0.6l0.1,0.4l0.1,0.4v0.3c0,0.5-0.2,0.9-0.6,1.1c0-0.1,0-0.2-0.1-0.3c0,0,0-0.1-0.1-0.1
			l-0.1,0.1v0.2c0,0,0.1,0.1,0.3,0.1c0,0.2,0.1,0.3,0.1,0.5c0,0.3-0.1,0.6-0.2,1c-0.3,0.6-0.6,1.1-1.1,1.3c0.2,0.2,0.3,0.4,0.3,0.6
			c0,0.1,0,0.3-0.1,0.4c-0.1,0.4-0.4,0.7-0.8,0.8c0.2,0.2,0.3,0.3,0.3,0.5c0,0,0,0.1-0.1,0.2l-0.1,0.4c0,0.2-0.1,0.3-0.1,0.4h-0.1
			c0,0.1-0.1,0.2-0.4,0.3C57.7,133.7,57.7,133.8,57.7,133.9z M57.7,133.5v-0.2l-0.1-0.1c0,0-0.1-0.1-0.2-0.1h-0.1
			c0,0.1,0.1,0.2,0.2,0.3L57.7,133.5z M62.5,126.3c-0.1-0.1-0.1-0.2-0.1-0.3V126l0.1-0.1v-0.1c0,0,0.1-0.1,0.1-0.1
			c0,0-0.1-0.1-0.2-0.1h-0.1l-0.4,1.2l-0.3,1.2c-0.3,1-0.7,1.7-1.1,2.3c0,0.7-0.3,1.6-0.9,2.7l-0.6,1.3c-0.2,0.5-0.3,1-0.4,1.4
			c-0.3,0.3-0.6,0.7-0.8,1.1c-0.1,0.3-0.1,0.5-0.1,0.6c0,0.2,0.1,0.3,0.2,0.3c0.2-0.4,0.4-0.9,0.7-1.5l0.8-1.6
			c0.6-1.4,1.2-2.4,1.8-3.1c0-0.2-0.1-0.4-0.4-0.6c0.5-0.4,0.9-1.2,1.1-2.3l0.1-0.6l0.1-0.6C62.1,127,62.3,126.6,62.5,126.3z
			 M62.4,119.5l-0.3,0.1v0.1l0.1-0.1l0.1-0.1C62.4,119.6,62.4,119.5,62.4,119.5z M65,118.5l-0.3,0.1l-0.1,0.1h-0.2l-0.3,0.7
			l-0.4,1.3l-0.4,1.3c-0.3,1-0.4,1.8-0.4,2.6c-0.1,0.1-0.2,0.2-0.3,0.4l-0.1,0.5c0.2,0,0.3-0.2,0.3-0.4v-0.5l0.1-0.1
			c0-0.2,0.1-0.4,0.3-0.7l0.2-0.3l0.1-0.4c0,0.1,0.1,0.2,0.1,0.2c0.1,0,0.1,0,0.1-0.1c0,0,0.1-0.1,0.1-0.1h-0.1c0,0,0-0.1-0.1-0.1
			c0,0-0.1,0-0.2,0.1L65,118.5z M64.7,115.9l-1.5,0.5l-0.1,0.2l-0.1,0.2l0.7-0.3l0.8-0.3L64.7,115.9z M63.5,113.2
			C63.5,113.2,63.4,113.2,63.5,113.2l-0.1,0.1L63.5,113.2L63.5,113.2z M65,114.9l0.2-0.6l-0.7,0.2c-0.1,0.2-0.3,0.3-0.5,0.5l0.1,0.3
			L65,114.9z M64.3,112.7c0,0.1,0,0.2,0.1,0.3h0.1l0.3-0.1c0,0-0.1-0.1-0.1-0.2L64.3,112.7z M65.1,147.9l-0.4,0.1
			c-0.2,0.1-0.3,0.2-0.3,0.3v0.1l0.3-0.1l0.3-0.2c0.3-0.1,0.4-0.2,0.4-0.3v-0.1L65.1,147.9z M64.6,109.2c0,0,0,0.1,0.1,0.1v-0.3
			c0-0.1,0-0.1-0.1-0.2V109.2z M65.4,106.6v0.1l-0.1,0.1v0.2c0.2,0,0.3-0.1,0.3-0.3v-0.1c0-0.2-0.1-0.3-0.3-0.3
			C65.4,106.4,65.4,106.5,65.4,106.6z M65.9,108.3c0-0.1,0-0.2-0.1-0.3l-0.1-0.2c0,0-0.1-0.1-0.1-0.1l-0.1,0.1v0.1
			c0,0,0.1,0,0.2,0.1l0.1,0.1L65.9,108.3z M65.5,115.6L65.5,115.6l-0.1,0.3l0.3-0.2l0.1,0.1l0.1-0.1l-0.1,0.1L65.5,115.6z
			 M66.3,113.9l-0.6,0.2l-0.1,0.6l0.6-0.1L66.3,113.9z M66,106.2c0,0.1-0.1,0.2-0.1,0.3c0,0.1,0,0.2,0.1,0.3h0.3
			c0-0.1-0.1-0.2-0.1-0.3v-0.1c0-0.1,0.1-0.1,0.1-0.2s0-0.1-0.1-0.1C66.2,106.1,66.1,106.2,66,106.2z M67.6,108.2
			c-0.1,0.6-0.3,1.3-0.6,2.2l-0.4,1l-0.4,1.1l0.7-0.2c1.9-6.9,3.4-12.7,4.3-17.5c0.1,0,0.2-0.1,0.3-0.3l0.1-0.3
			c0-0.3,0.1-0.4,0.4-0.4c-0.1-0.2-0.2-0.4-0.2-0.7v-0.3c0-0.3,0.1-0.6,0.3-1.1c0.2-0.6,0.3-1,0.3-1.3c0-0.2,0-0.3-0.1-0.4
			c-0.5,0.8-0.8,1.8-1,2.9l-0.2,1.5L70.7,96c0,0.2-0.2,0.4-0.4,0.8L70,97.2l-0.2,0.4c-0.2,0.6-0.3,1.4-0.5,2.5l-0.2,1.3l-0.3,1.3
			l-0.4,1.3l-0.4,1.3C67.9,106.4,67.7,107.4,67.6,108.2z M69.9,114.7l1.5-0.3c0.5-0.1,1.1-0.3,1.6-0.4c-1.2,0.1-2.5,0.2-3.9,0.4
			c-0.6,0.1-1.1,0.2-1.6,0.4l-0.1,0.6C68.1,115.2,68.9,114.9,69.9,114.7z M68.4,113.3l-0.7,0.2l-0.2,0.4v0.2l2-0.6l2-0.6
			c0.3,0,0.9,0,1.6-0.1l0.9-0.1l1-0.1c1.5-0.3,2.3-0.5,2.5-0.8C74.8,111.9,71.9,112.4,68.4,113.3z M68.5,147
			C68.5,147,68.5,147.1,68.5,147c0.1,0.1,0,0.2-0.1,0.3l-0.1,0.2l-0.1,0.2c0.2-0.1,0.4-0.3,0.5-0.4c0.1-0.1,0.2-0.2,0.3-0.3v-0.1
			c0,0,0-0.1-0.1-0.1C68.8,146.8,68.6,146.9,68.5,147z M68.5,93.9l0.3-0.1c0-0.1-0.1-0.1-0.1-0.2h-0.3
			C68.4,93.8,68.4,93.8,68.5,93.9z M68.8,92.4l0.1,0.1h0.3L69,92.4L69,92.3c0,0-0.1-0.1-0.1-0.1v0.1C68.8,92.3,68.8,92.3,68.8,92.4
			L68.8,92.4z M69.2,91.3l0.1-0.1c0.1,0,0.1-0.1,0.1-0.1c0,0,0-0.1-0.1-0.1c-0.2,0-0.3,0.1-0.3,0.3v0.1L69.2,91.3z M69.5,104.7
			l0.1-0.3v-0.1c0-0.1-0.1-0.2-0.2-0.2l-0.1,0.1l-0.1,0.3v0.1c0,0.2,0.1,0.3,0.3,0.3V104.7z M70.4,89c0.2-0.3,0.4-0.4,0.7-0.4
			c0.2,0,0.3,0.1,0.5,0.3c0-0.5,0.1-1.4,0.4-2.7c0.3-1.5,0.5-2.3,0.8-2.5c0-0.2-0.1-0.4-0.1-0.7v-0.4l0.1-0.6l0.2-0.7
			c0.2-0.7,0.3-1.3,0.3-1.8c0-0.3,0-0.5-0.1-0.6c0.2-0.1,0.3-0.3,0.4-0.6l0.1-0.4v-0.3h-0.1c-0.1,0-0.2,0-0.3,0.1l-0.1,0.2l-0.1,0.1
			c0-0.1-0.1-0.2-0.1-0.3v-0.3c0-0.2,0-0.4-0.1-0.6c-0.4,0.6-0.6,1.3-0.8,2c0,0.2-0.1,0.4-0.1,0.6c0,0.7,0.2,1.3,0.6,1.7
			c-0.5,0.4-0.9,1.6-1.4,3.6l-0.3,1.2l-0.3,1.3c-0.3,1.1-0.4,1.8-0.5,2.2c0,0,0.1-0.1,0.1-0.1h0.3c0.1,0,0.1,0,0.2-0.1l0.1-0.1h-0.4
			C70.5,89.1,70.4,89.1,70.4,89z M70.5,84.2v0.1c0,0.2,0.1,0.4,0.3,0.4l-0.1-0.2v-0.2C70.7,84.3,70.6,84.2,70.5,84.2z M71.5,144.9
			l-0.4,0.2c-0.1,0.1-0.3,0.2-0.4,0.3c0,0,0.1,0.1,0.2,0.1c0.1,0,0.2,0,0.3-0.1c0.2-0.1,0.4-0.2,0.6-0.4c0.3-0.1,0.4-0.3,0.5-0.4
			c0.1-0.1,0.1-0.2,0.1-0.3v-0.1C72.1,144.5,71.8,144.7,71.5,144.9z M73.7,144.4c0,0,0-0.1-0.1-0.1c0,0-0.1,0-0.3,0.1
			c-0.2,0.1-0.4,0.3-0.7,0.4c-0.3,0.2-0.5,0.4-0.6,0.5l-0.1,0.1c0,0,0,0.1,0.1,0.1h0.1c0.2-0.2,0.3-0.3,0.5-0.4l0.2-0.1l0.2-0.1
			C73.3,144.8,73.5,144.6,73.7,144.4z M73.7,84.6L74,82l0.2-2.6c-0.9,2.3-1.4,4.7-1.4,7.3c0,0.1-0.1,0.4-0.3,0.8l-0.1,0.4l-0.2,0.4
			c-0.1,0.3-0.1,0.5-0.1,0.6c0,0.3,0.1,0.4,0.3,0.4C73,88.2,73.4,86.6,73.7,84.6z M73,74.8c0,0.1,0.1,0.3,0.1,0.4
			c0,0.2,0,0.3-0.1,0.5L72.9,76l-0.1,0.4c0.1,0,0.1-0.1,0.2-0.2l0.1-0.2c0-0.1,0.1-0.1,0.2-0.1c0,0,0.1,0,0.2,0.1v0.1
			c0,0.1-0.2,0.2-0.5,0.3c0,0,0.1,0.1,0.2,0.2l0.2,0.3c0.1,0.2,0.2,0.3,0.3,0.3h0.1l0.3-1.2l0.2-1.3c0-0.5,0.1-1,0.1-1.4
			s0-0.8-0.1-1.2c0,0.1-0.2,0.1-0.4,0.2c0.2,0.2,0.3,0.4,0.3,0.6c0,0.1,0,0.3-0.1,0.4c-0.1,0.4-0.4,0.6-1,0.6l0.1,0.2l0.1,0.2
			c0,0.2,0.1,0.3,0.3,0.3c-0.1-0.1-0.1-0.2-0.1-0.3c0-0.1,0.1-0.2,0.2-0.3c0,0.1,0,0.1,0.1,0.2l0.1,0.1v0.1
			c-0.1,0.1-0.1,0.2-0.2,0.4V75c0,0.1,0,0.2-0.1,0.3C73.3,75,73.2,74.8,73,74.8z M73.2,113.9c0,0.1,0.1,0.2,0.2,0.2s0.3-0.1,0.5-0.2
			c0.2-0.1,0.3-0.2,0.4-0.3c0.1,0,0.1-0.1,0.1-0.1c0,0,0-0.1-0.1-0.1c-0.3,0.1-0.5,0.2-0.6,0.2h-0.1
			C73.5,113.7,73.3,113.8,73.2,113.9z M73.7,70.6L74,71l0.2,0.3v0.1c0,0.2-0.1,0.3-0.4,0.5c0,0,0.1-0.1,0.1-0.1c0,0,0.1,0,0.1,0.1
			l0.1,0.1c0.1,0.1,0.2,0.1,0.3,0.1c0,0,0.1,0,0.1-0.1l0.2-1.3c0-0.5,0.1-1,0.3-1.4c-0.3,0-0.5-0.1-0.7-0.1c-0.2,0-0.3,0-0.4,0.1
			c0,0-0.1,0.1-0.1,0.2c0,0.1,0,0.3,0.1,0.5c0.2,0,0.3-0.1,0.3-0.2l0.1-0.1v-0.1c0.1,0.1,0.1,0.2,0.1,0.3s-0.1,0.2-0.3,0.3l-0.3,0.2
			C73.8,70.4,73.7,70.5,73.7,70.6z M74.4,78.1l0.1-0.4l0.1-0.4c0.1-0.3,0.1-0.6,0.1-0.9c0-0.3-0.1-0.6-0.2-0.8
			c0,0.2-0.1,0.5-0.2,0.9l-0.1,0.5l-0.1,0.5c0,0.3-0.1,0.6-0.1,0.8c0,0.4,0.1,0.7,0.3,1V78.1z M74.9,74.5l0.1-0.5
			c0-0.1,0.1-0.2,0.1-0.3c0-0.3-0.1-0.5-0.3-0.6v0.4l-0.1,0.4c0,0.1-0.1,0.3-0.1,0.4c0,0.2,0,0.4,0.1,0.6h-0.1V75c0,0,0,0.1-0.1,0.1
			l0.1,0.3c0.1,0,0.2-0.1,0.2-0.3c0-0.1,0-0.2-0.1-0.3L74.9,74.5z M75.1,67H75c0,0-0.1,0-0.1,0.1c0,0-0.1,0.1-0.1,0.2
			c0,0.1,0,0.1,0.1,0.2c0.1,0,0.2,0.1,0.3,0.1l-0.1-0.2c0,0,0-0.1,0.1-0.1C75.1,67.1,75.1,67.1,75.1,67z M75.2,71.5L75.2,71.5
			c0-0.1,0-0.1,0.1-0.1c0-0.1,0-0.2-0.1-0.3c-0.1,0-0.2,0.1-0.3,0.1v0.1c0,0,0,0.1-0.1,0.1c0,0.1,0,0.2,0.1,0.3
			C75.1,71.5,75.2,71.5,75.2,71.5z M75.1,71.9c0,0,0,0.1-0.1,0.2L75,72.3v0.1c0,0.1,0.1,0.2,0.2,0.2h0.1c0,0-0.1-0.1-0.1-0.2
			l0.1-0.3C75.3,71.9,75.2,71.9,75.1,71.9z M75.3,69.7l-0.1,0.2v0.2c0,0.1,0,0.2,0.1,0.3l0.4-0.1c0,0-0.1-0.1-0.1-0.2v-0.4
			c0-0.1-0.1-0.2-0.3-0.2L75.3,69.7z M80.2,143.2l0.3-0.2l0.3-0.3c0.4-0.3,0.6-0.5,0.6-0.6c0,0,0-0.1-0.1-0.1l-0.2,0.1l-0.3,0.2
			c-0.3,0.2-0.5,0.3-0.6,0.4c-0.4,0.3-0.6,0.5-0.6,0.7c0,0.1,0,0.1,0.1,0.2C79.8,143.5,80,143.4,80.2,143.2z M98.5,119.2
			c0.1-0.2,0.1-0.3,0.2-0.5c-0.1,0-0.2,0-0.3,0.1c-0.1,0.2-0.2,0.3-0.3,0.5L98.5,119.2z M100.9,115.8l0.1-0.3c0-0.1,0.1-0.1,0.1-0.2
			c0,0,0-0.1-0.1-0.1c-0.1,0.2-0.2,0.3-0.3,0.3l-0.1,0.3l-0.1,0.2c0,0.1,0,0.1,0.1,0.1c0.1,0,0.2,0,0.3-0.1L100.9,115.8z
			 M102.4,113.2l0.3-0.2l0.3-0.1c0.2-0.2,0.3-0.4,0.4-0.7C102.9,112.3,102.6,112.6,102.4,113.2z M108,106.4c0.2,0,0.3,0.2,0.3,0.6
			c0.1-0.1,0.2-0.3,0.3-0.5l0.1-0.3l0.2-0.4c0.3-0.6,0.6-1.2,0.8-1.7c0.8-1.7,1.4-3.2,2-4.5c0.4-0.9,0.7-1.6,1-2.3l0.4-1.1l0.4-1
			c0.5-1.3,0.8-2.1,1.1-2.6c0.1-0.9,0.3-2,0.6-3.2l0.4-1.8l0.4-1.9c0.2-0.5,0.3-1.2,0.4-1.9l0.3-1.9c0.1-0.8,0.2-1.3,0.2-1.7
			c0-0.6,0-1.1-0.1-1.6c0.3-0.5,0.5-1.4,0.5-2.5c0-0.4,0-0.9-0.1-1.3c-0.2,0.1-0.3,0.3-0.4,0.6v0.5l-0.1,0.4
			c-0.1-0.3-0.1-0.6-0.1-0.9l-0.1-0.7c0-0.5-0.1-1.1-0.2-1.5c-0.1,0.5-0.2,1.5-0.3,2.8c-0.2,1.1-0.3,2.3-0.4,3.4l-0.1,0.9l-0.1,0.8
			c0,0.6-0.1,1.1-0.1,1.6v1.5c0,0.5,0.1,0.9,0.2,1.2c-0.2,0.4-0.4,1-0.7,1.7c-0.1,0.3-0.3,0.7-0.4,1.1l-0.2,0.6l-0.3,0.7l-0.5,1.4
			l-0.5,1.5l-0.6,1.6l-0.6,1.6c-1.6,4.3-3.5,8.4-5.6,12.2c0-0.1,0.1-0.1,0.2-0.1h0.1l0.1,0.1h0.1c0.1,0,0.3-0.1,0.4-0.4
			c0.2-0.1,0.3-0.2,0.3-0.3c0,0,0-0.1-0.1-0.1c0,0-0.1,0-0.2,0.1l-0.2,0.1l-0.1,0.1c0,0-0.1,0-0.1-0.1v-0.1
			C107.3,106.7,107.7,106.4,108,106.4z M117.8,80c-1.2,6.1-3.1,13.1-5.8,20.9c-0.2,0.4-0.5,1.1-1,2l-0.6,1.2l-0.6,1.2
			c-0.8,1.4-1.2,2.3-1.2,2.6c0,0.1,0,0.2,0.1,0.2C113.8,100.3,116.8,91,117.8,80z M108.9,45.7c0,0-0.1,0.1-0.1,0.2V46
			c0.1,0.1,0.2,0.3,0.3,0.4c0.1,0.2,0.3,0.3,0.4,0.4c0,0,0.1,0.1,0.1,0.1c0,0,0.1,0,0.1-0.1c-0.3-0.3-0.4-0.5-0.4-0.6
			C109.2,45.9,109,45.8,108.9,45.7z M111.2,95.8c0,0.2,0.1,0.3,0.2,0.3l0.1-0.4l0.1-0.5V95c0-0.1,0-0.2-0.1-0.2h-0.1
			C111.3,95.2,111.2,95.6,111.2,95.8z M113.4,55.7l0.3,0.4l0.3,0.3c0.2,0.3,0.3,0.5,0.4,0.6c0.2,0.3,0.3,0.8,0.3,1.3
			c0,0.2,0,0.3-0.1,0.5c0-0.1,0.1-0.1,0.1-0.1h0.1l0.1,0.1l0.1,0.1c0.1,0.1,0.1,0.1,0.2,0.1c0.1,0,0.1-0.1,0.2-0.3
			c-0.6-2.2-1.6-4.7-2.9-7.5l-0.2,0.2l-0.2,0.2c-0.1,0.2-0.2,0.4-0.3,0.6c0.1,0.3,0.4,0.8,1,1.6c0-0.1,0.1-0.3,0.1-0.4
			s0-0.3-0.1-0.4l-0.1-0.4l-0.1-0.3c0.4,0.5,0.7,1.1,0.7,1.8V55C113.2,55.3,113.3,55.5,113.4,55.7z M114.4,53.3
			c-0.1-0.1-0.3-0.3-0.4-0.6l-0.1-0.4l-0.1-0.3c-0.2-0.4-0.3-0.6-0.4-0.6c0,0-0.1,0-0.1,0.1l0.2,0.5l0.2,0.5
			c0.2,0.5,0.4,0.9,0.7,1.3L114.4,53.3z M115,55.8L115,55.8l-0.1,0.3c0.1,0.2,0.1,0.3,0.1,0.4v0.1c0.1,0.2,0.2,0.4,0.3,0.6
			c0-0.1,0.1-0.3,0.1-0.4c0-0.1-0.1-0.2-0.1-0.3v-0.1C115.2,56,115.1,55.8,115,55.8z M116.9,71.4c0,0.4-0.1,0.8-0.4,1.1
			c0.1,0,0.1,0.2,0.2,0.4l0.1,0.3l0.1,0.4c0.1,0.5,0.3,0.7,0.4,0.7l0.1-0.1v-1.4c0-1.8-0.1-3.8-0.3-6.1c-0.3-2.7-0.9-5.2-1.8-7.4
			v0.2c0,0.3-0.1,0.5-0.2,0.8c0.5,0.5,0.8,1.4,0.9,2.5c0,0.3,0.1,0.5,0.1,0.7c0,0.8-0.2,1.4-0.6,1.8c0.1,0.1,0.2,0.2,0.3,0.4
			l0.1,0.6c0.1,0.3,0.2,0.4,0.3,0.4c0,0,0.1,0,0.1-0.1c-0.2-0.4-0.3-0.8-0.3-1.3v-0.5c0,0.1,0.1,0.2,0.1,0.3l0.1,0.2
			c0.1,0.1,0.1,0.1,0.1,0.2c0,0.1-0.1,0.3-0.1,0.4c0,0.3,0,0.6,0.1,1c0.1,0.4,0.1,0.7,0.1,1.1c0,0.2,0,0.4-0.1,0.6
			c-0.2-0.8-0.4-1.1-0.6-1.1c0.2,0.6,0.3,1.4,0.3,2.4l0.1,1.2l0.1,1.1c0.1-0.1,0.1-0.3,0.2-0.5l0.1-0.4v-0.3c0-0.3,0.1-0.4,0.1-0.4
			c0,0,0.1,0.1,0.2,0.2C116.9,71.1,116.9,71.2,116.9,71.4z M116.3,59.2l-0.2-0.6c-0.1-0.4-0.2-0.6-0.3-0.6l-0.1,0.1
			c0,0,0,0.2,0.1,0.5l0.1,0.3l0.1,0.4c0.1,0.4,0.2,0.6,0.3,0.6c0,0,0.1-0.1,0.1-0.2C116.4,59.5,116.4,59.4,116.3,59.2z M117.7,68.2
			c0.1-0.1,0.1-0.3,0.1-0.5c0-0.3-0.1-0.6-0.2-1c0-1-0.1-2-0.3-3c-0.2-1.2-0.5-2-0.9-2.4c0.1,0.4,0.2,0.8,0.3,1.3l0.1,1.3
			c0.2,1.1,0.4,2,0.7,2.8l-0.1,0.2c0,0.1,0.1,0.2,0.1,0.3c0,0.1,0,0.1-0.1,0.2L117.7,68.2z M118.1,73.6l0.1-1.3c0-0.5,0-0.9-0.1-1.3
			c-0.1-0.9-0.3-1.7-0.5-2.3c0.1,0.6,0.1,1.5,0.2,2.7l-0.1,1.5l-0.1,1.5v2.8c0,0.9,0.1,1.5,0.3,2v-0.9c0-0.6,0-1.2,0.1-1.9
			L118.1,73.6z"/>
		<path class="st1" d="M154.9,97.7c0.3,0.6,0.4,1.1,0.4,1.5c0,0.3-0.1,0.6-0.2,0.8v0.1c-0.3,0.2-0.5,0.5-0.7,0.8
			c-0.4,0.6-1.4,1.8-3,3.6l-1.9,2.1c-0.7,0.8-1.3,1.6-1.8,2.2l-0.2,0.2c-2.5,2.1-4.9,3.8-7.1,5.3c-1.2,0.8-2.5,1.6-3.8,2.3
			c-1.6,0.8-3,1.5-4.3,2c-1.7,0.6-3.3,1-4.9,1.1h-1c-1.8,0-3.4-0.3-4.8-1c-1-0.5-1.9-1.2-2.7-2.1c-0.6-0.8-1.1-1.7-1.5-2.8
			c-0.4-1.1-0.6-2.3-0.6-3.5c0-0.6,0-1.2,0.1-1.8v-1.3l0.1-1.1c0.1-0.8,0.2-1.5,0.4-2.2c0.3-1.4,0.8-2.8,1.5-4.1
			c1.1-2.5,2.8-4.9,5.1-7.4l0.2-0.1l0.9-0.6l0.8-0.7l0.8-0.6l0.4-0.4c0.2-0.1,0.4-0.3,0.6-0.4c1.6-1.1,3.2-1.6,4.6-1.6
			c0.4,0,0.8,0.1,1.3,0.2l0.4,0.1c0.6,0,1.1,0.2,1.6,0.4c0.5,0.2,1,0.6,1.4,1c0.7,0.8,1.1,1.9,1.2,3.2V93c0,0.9-0.3,2.2-0.8,3.7
			l-0.4,1l-0.2,0.5l-0.1,0.3l-0.3,0.6l-0.3,0.6c-1.6,3-4,5.6-7,7.7c-0.1,0.1-0.2,0.2-0.3,0.3c-0.1,0.1-0.1,0.2-0.2,0.3l-0.2,0.3
			c-0.1,0.2-0.3,0.3-0.5,0.4c-1,0.4-1.9,0.9-2.8,1.5l-1.5,1l-1.5,0.9h-0.1l0.3,0.5c0.2,0.3,0.4,0.5,0.6,0.8l0.3,0.4l0.3,0.4
			c0.1,0,0.2,0,0.3-0.1l0.1-0.1c0,0,0.1-0.1,0.1-0.1c0.5,0.4,1.2,0.6,2.2,0.6c0.3,0,0.5,0,0.8-0.1c0.5,0,1.1-0.1,1.8-0.3l1.8-0.4
			c0.1,0,0.3-0.1,0.4-0.2c0.2-0.2,0.5-0.4,0.8-0.6l0.9-0.4c0.8-0.3,1.4-0.7,1.7-1.1l0.3,0.1l0.2-0.1h0.1c0.1,0,0.1,0,0.2,0.1
			c0.4-0.4,0.8-0.8,1.4-1.1l1.4-1c1.2-0.8,2.1-1.5,2.7-2.1c0.1-0.1,0.2-0.2,0.3-0.3c0.3-0.1,0.7-0.4,1.1-0.7l1-0.9
			c0.9-0.8,1.6-1.4,2-1.6v-0.1h-0.1l-0.1-0.1c0,0-0.1,0-0.1-0.1c0.6-0.8,1.6-2,2.9-3.8c1.7-2.1,2.7-3.5,3.1-4.3l0.3-0.1l0.1-0.1
			c0.1-0.3,0.4-0.5,0.8-0.6h0.1c0.3,0,0.7,0.2,1.1,0.7C154,96,154.5,96.8,154.9,97.7z M119,108.1c0,0.5,0.1,0.9,0.2,1.2V109
			c0-0.6,0.1-1.4,0.3-2.3c0.2-0.9,0.3-1.5,0.3-2c0-0.2,0-0.3-0.1-0.4c0,0.4-0.1,0.8-0.3,1.3l-0.3,1.3C119,107.3,119,107.7,119,108.1
			z M119.4,111.6c0.1,0.6,0.3,1,0.6,1.2c-0.2-0.4-0.3-0.8-0.3-1.2l-0.1-0.6c-0.1-0.3-0.2-0.7-0.3-1.5c0,0-0.1,0.1-0.1,0.2v0.1
			l0.1,1.1C119.3,111.2,119.4,111.4,119.4,111.6z M122.6,97.5c-1.2,1.9-2.1,4.1-2.8,6.3c1.1-2.7,2.5-5.5,4.4-8.4
			c0.2-0.2,0.4-0.5,0.6-0.8l0.4-0.4l0.4-0.4c0.6-0.6,0.9-1,0.9-1.1C125.1,94,123.8,95.6,122.6,97.5z M122.1,100.5l0.3-0.4l0.3-0.5
			c0.4-0.7,0.6-1.1,0.6-1.3v-0.1c-1.2,1.6-2.1,3.4-2.7,5.5c-0.4,1.5-0.6,2.9-0.6,4.3c0,0.8,0.1,1.5,0.2,2.3c0-0.4-0.1-0.8-0.1-1.1
			c0-2.3,0.5-4.9,1.6-7.8C121.8,101.1,122,100.8,122.1,100.5z M120.2,113.8l0.2,0.3c0.1,0.2,0.2,0.3,0.3,0.3h0.1
			c0,0-0.1-0.1-0.1-0.2l-0.1-0.4c-0.1-0.2-0.2-0.3-0.3-0.3c0,0-0.1,0-0.1,0.1L120.2,113.8z M121.1,113.5c0.3,0.8,0.8,1.4,1.5,1.6
			c-0.5-0.4-1-1-1.3-2l-0.3-0.5l-0.2-0.6c-0.2-0.4-0.3-0.6-0.5-0.8l0.4,1.1L121.1,113.5z M121.2,115.2l0.1-0.2c0,0-0.1-0.1-0.1-0.1
			v-0.1c-0.1,0-0.2-0.1-0.3-0.2c0,0.1,0,0.1-0.1,0.2c0,0,0.1,0.1,0.1,0.1v0.1C121.1,115,121.2,115.1,121.2,115.2z M122,116.2
			l0.3,0.2l0.3,0.3c0.1,0.1,0.2,0.1,0.3,0.1c0.1,0,0.1,0,0.1-0.1l-0.2-0.1l-0.2-0.2c-0.2-0.1-0.4-0.3-0.6-0.4V116.2z M124.2,116.4
			c0.3,0.1,0.6,0.2,0.8,0.2c0.1,0,0.3,0,0.4-0.1c-0.2,0-0.4-0.1-0.6-0.1l-0.5-0.3l-0.2-0.1l-0.3-0.1c-0.2-0.1-0.5-0.3-1.1-0.6v0.1
			c0,0.1,0.1,0.3,0.4,0.5C123.4,116,123.8,116.2,124.2,116.4z M128,96.5c-0.2,0.4-0.6,0.8-1.1,1.3l-0.6,0.6l-0.5,0.5l-0.1,0.2
			c-0.3,0.5-0.6,1.1-1,1.9l-1,1.9c-0.3,0.6-0.5,1.1-0.7,1.6c0.3-0.2,0.6-0.3,1.1-0.5c0.1,0,0.2-0.1,0.3-0.3l0.1-0.2l0.2-0.1
			c0.1,0,0.1-0.1,0.1-0.2c0,0,0-0.1-0.1-0.1c1.2-0.5,2.3-1.3,3.2-2.3l1.3-1.4c0.5-0.6,1-1.1,1.4-1.5c0.1-0.1,0.1-0.2,0.2-0.3
			c0.1-0.5,0.3-1,0.5-1.5l0.1-0.1l0.1-0.2l0.1-0.1c0,0,0.2,0,0.4-0.1c0.1,0,0.2-0.1,0.2-0.2l-0.1-0.1c-0.2-0.1-0.3-0.3-0.3-0.4v-0.5
			c0-0.3-0.1-0.4-0.3-0.4h-0.1c-0.2,0-0.4,0.1-0.5,0.3l-0.1,0.1h-0.1c-0.1-0.1-0.2-0.1-0.3-0.1c-0.1,0-0.2,0.1-0.3,0.2l-0.1,0.1
			l-0.2,0.1l-0.4,0.3l-0.7,0.5c0,0.1-0.1,0.1-0.1,0.2c0,0.1,0.1,0.2,0.3,0.3l-0.3,0.1h-0.3C128.3,96.1,128.1,96.2,128,96.5z
			 M126.6,116.9c0.1,0,0.2,0,0.2-0.1h-0.3l-0.3-0.1h-0.1c-0.1,0-0.2,0-0.2,0.1v0.1H126.6z M127.5,116.9c0.1,0,0.2-0.1,0.3-0.1
			c0-0.1-0.1-0.1-0.1-0.2h-0.1c0,0-0.1,0-0.1-0.1l-0.3,0.1c0,0,0.1,0.1,0.1,0.1C127.4,116.8,127.5,116.9,127.5,116.9z M128.9,116.9
			c0-0.1,0.1-0.1,0.3-0.1l0.4-0.1c0.2,0,0.3-0.1,0.3-0.2v-0.1h-0.5c-0.2,0-0.4,0.1-0.6,0.2L128.9,116.9z"/>
		<path class="st1" d="M183.9,17.6c0.5,0.7,0.9,1.4,1.1,2c-0.5,2.5-1.6,5.5-3,8.9l-1,2l-0.9,2c-0.7,1.6-1.3,2.9-1.8,4
			c-0.1,0-0.3,0.1-0.4,0.3l-0.3,0.4c-0.2,0.4-0.4,0.6-0.6,0.6V38l0.1,0.1v0.1c0,0.1,0,0.2-0.1,0.3c-0.5,1.1-1,2.4-1.6,3.7l-0.8,1.6
			l-0.8,1.6c-1.2,2.5-2.1,4.6-2.6,6.3c-0.2,0-0.3,0-0.3,0.1l-0.1,0.1l-0.1,0.1c-0.1,0.2-0.2,0.3-0.4,0.3h-0.1
			c0.1,0.2,0.1,0.4,0.1,0.6c0,0.2,0,0.4-0.1,0.6c-0.2,0.4-0.5,0.6-1,0.6c0,0.1,0,0.2,0.1,0.3l0.1,0.2c0.1,0.2,0.2,0.3,0.2,0.4
			c-1.5,3.2-2.4,5.2-2.6,6.2c-0.3,0.4-0.5,0.9-0.8,1.5h-0.2c0,0.2,0.1,0.3,0.1,0.4l-0.1,0.3l-0.1,0.2v0.3c-0.2,0.5-0.3,1-0.4,1.6
			h-0.1l-0.2,1c-0.1,0.3-0.1,0.6-0.2,0.8c-0.2,0.6-0.5,1-1,1.2v0.3l0.1,0.1c0.1,0,0.2,0.1,0.2,0.2v0.1c-0.3,0.1-0.4,0.4-0.6,0.8
			l-0.1,0.4l-0.1,0.5c-0.2,0.9-0.5,1.4-1,1.6c0.1,0.3,0.2,0.6,0.2,0.9c0,0.8-0.5,1.2-1.4,1.4c0,0.2,0.1,0.3,0.2,0.4
			c0.1,0.1,0.3,0.2,0.4,0.3c-0.3,0.5-0.5,1.2-0.7,2l-0.3,1.1l-0.3,1.1c-0.5,2.1-1.1,3.7-1.6,4.9l-0.7,3.2l-0.7,3.1l-1.4,6.2
			c-1,4.8-1.8,9.1-2.3,12.9l-0.1,0.9c0,0.3,0.1,0.5,0.2,0.8l-0.1,0.3l-0.2,1l-0.1,2.3l-0.1,2.4v4.8l0.1,0.7l0.1,0.6
			c0,0.4,0.1,0.7,0.1,1v0.4c0.1,0,0.1,0,0.2,0.1l0.1,0.1l0.2,0.1c0,0.2-0.1,0.3-0.1,0.5v0.2c0,0.1,0.1,0.2,0.1,0.3
			c0,0.1,0.1,0.3,0.1,0.4v0.4l0.4,0.4l0.3,0.2c0.1,0,0.2,0.1,0.3,0.1c0.4-0.1,0.6-0.4,0.8-1h0.1l0.1,0.1l0.1,0.1h0.1
			c0-0.2,0-0.4,0.1-0.5c0,0,0-0.1,0.1-0.2l0.3-0.4c0.5-0.7,0.8-1.3,0.9-1.8c0-0.1,0.1-0.2,0.3-0.3c0.3-0.1,0.5-0.4,0.6-0.8l0.1-0.5
			l0.1-0.4l0.1-0.2c0.3-0.4,0.7-1.2,1.2-2.3c0.3-0.6,0.5-1.1,0.6-1.4c0.3-0.5,0.5-0.9,0.8-1.2l0.1-0.1l0.2-0.5l0.1-0.6
			c0.1-0.4,0.3-0.8,0.6-1c0.1-0.1,0.1-0.2,0.1-0.3s0-0.2-0.1-0.3l-0.1-0.2v-0.2c0.1,0.1,0.2,0.1,0.3,0.1s0.1,0,0.2-0.1l0.2-0.6
			l0.3-0.6c0.2-0.5,0.3-0.9,0.3-1.2c0-0.2,0.1-0.3,0.2-0.4c0.3-0.2,0.5-0.5,0.6-0.9l0.1-0.5l0.2-0.6c0.3-0.9,0.6-1.6,1.1-2
			c0.1-0.1,0.2-0.3,0.2-0.4c0-0.1-0.1-0.2-0.1-0.3c0-0.3,0.1-0.6,0.3-0.8c0.2-0.3,0.4-0.6,0.6-0.9c0.1-0.1,0.1-0.2,0.1-0.3
			c0.2-0.8,1.1-2.5,2.9-5.3c1.4-2.1,2.3-3.2,2.8-3.2c0.1,0,0.2,0.1,0.3,0.3c0.2,0,0.4,0.4,0.7,1.2c0.3,0.8,0.5,1.8,0.8,3.2l0.2,0.3
			c0.1,0.1,0.1,0.2,0.1,0.3c0,0,0,0.1-0.1,0.1c-1.1,1.2-1.8,2.3-2.3,3.3l-1.3,2.5c-1.1,2.2-1.9,3.9-2.6,5.1l-0.1,0.2
			c0,0.5-0.3,1.2-0.8,2.1l-0.6,1c-0.2,0.4-0.3,0.7-0.4,1.1v0.1c-0.4,0.6-0.8,1.4-1.1,2.2l-1.1,2.3c-0.8,1.9-1.6,3.3-2.4,4.2
			l-0.1,0.1c-0.3,0.8-0.7,1.6-1.1,2.4l-0.3,0.6l-0.2,0.3l-0.3,0.4c-0.6,0.9-1.1,1.5-1.5,2c-1.1,1.3-2.3,2-3.6,2H155l-0.3-0.1h-0.3
			l-0.5-0.1l-0.4-0.2c-0.3-0.2-0.6-0.4-0.8-0.6l-0.4-0.4l-0.4-0.4l-0.6-0.9L151,130l-0.3-0.6l-0.3-0.6l-0.3-0.6l-0.3-1.1
			c-0.2-0.7-0.3-1.4-0.4-2.2c-0.2-0.5-0.3-1.1-0.4-1.7c-0.2-1.1-0.3-2.2-0.4-3.5l-0.1-0.9v-0.1l0.1-0.3v-4.1l0.2,0.1l0.1-1.2
			l-0.3,0.3c0.6-13.4,4.2-29.5,10.7-48.2v-0.1c0.1-0.3,0.2-0.5,0.3-0.9v-0.2l0.1-0.1v-0.1l0.4-0.8c0.2-0.2,0.3-0.5,0.4-0.8h-0.1
			c0.1-0.5,0.2-0.9,0.2-1.3l0.1,0.1c0.1-0.6,0.3-1.2,0.6-1.7c0.3-0.7,0.6-1.1,1-1.4V57c0.5-1.2,1.1-2.7,1.9-4.5l2-4.6
			c1.6-3.8,2.9-6.8,3.9-9.2c0.2,0,0.3-0.1,0.4-0.3l0.2-0.2l0.2-0.1c0.4-1.3,0.9-2.6,1.5-4c0.4-0.9,1-2.1,1.8-3.7
			c1.6-3.3,2.7-5.8,3.2-7.5l0.8-1.3c0.3-0.6,0.5-1.1,0.8-1.4c0.3-0.4,0.6-1,0.8-1.8h0.2c0,0,0.1-0.1,0.1-0.2l0.1-0.3
			c0-0.1-0.1-0.1-0.1-0.1c0,0.1-0.1,0.2-0.1,0.3c0-0.1,0-0.2,0.1-0.3l0.2-0.4c0.2-0.4,0.3-0.7,0.5-1c0.3-0.4,0.7-0.6,1.1-0.6
			c0.3,0,0.5,0.1,0.8,0.3C183,16.6,183.4,17.1,183.9,17.6z M160.3,70.6c0-0.1,0-0.2-0.1-0.2c0,0-0.1,0-0.2,0.1h-0.2l-0.2,0.1
			c-0.1,0-0.1-0.1-0.1-0.2l0.9-2.5l0.9-2.4c-0.1-0.2-0.3-0.3-0.4-0.3c-0.1,0-0.1,0-0.2,0.1l-0.4,0.1c-0.1,0-0.3,0-0.4-0.1l-0.3,1.2
			l-0.4,1.1c-0.3,1-0.6,1.8-0.8,2.5c-0.5,1.1-1,2.4-1.5,3.9c-0.3,0.9-0.7,2.2-1.1,3.9c-0.9,3.2-1.7,5.4-2.2,6.7c0,1-0.3,2.7-1,5.1
			l-0.4,1.3l-0.3,1.4c-0.3,1-0.4,1.9-0.4,2.7c-0.4,1.5-0.8,3.7-1.2,6.5l-0.4,3.7l-0.6,3.6c0.1-0.1,0.3-0.2,0.5-0.3
			c0-0.2-0.1-0.4-0.1-0.6c0-0.2,0-0.4,0.1-0.7c0.2,0,0.3,0.2,0.3,0.4c0,0.1,0,0.2-0.1,0.3c0.2-0.1,0.3-0.4,0.4-1l0.1-0.6
			c0-0.3,0.1-0.4,0.2-0.6c0-0.1,0-0.1-0.1-0.1c0,0-0.1,0-0.3,0.1c-0.1,0.1-0.2,0.1-0.3,0.1c-0.1,0-0.1-0.1-0.1-0.2
			c0.7-1,1.1-2.4,1.4-4.2l0.1-1.2l0.2-1.1c0.1-0.9,0.3-1.7,0.4-2.4l0.4,0.1c0.1,0,0.2,0.1,0.3,0.2c0-0.1,0.1-0.1,0.1-0.2
			c0-0.3-0.3-0.4-0.8-0.5c0.3-0.1,0.5-0.4,0.6-1.1v-0.8c0-0.3,0.1-0.4,0.3-0.5c0-0.1-0.1-0.2-0.2-0.3l-0.3-0.1
			c-0.2,0-0.3-0.1-0.3-0.3c0,0,0-0.1,0.1-0.1c0.1,0.1,0.2,0.2,0.4,0.2l0.3-0.1h0.3c0-1.1,0.4-2.7,1-4.8l0.4-1.3l0.4-1.3
			c0.3-1.1,0.5-2,0.6-2.9l0.3-0.1l0.3,0.1h0.1c0.2,0,0.3-0.1,0.4-0.3c0-0.2-0.1-0.3-0.1-0.3c0,0-0.1,0-0.1,0.1l-0.1,0.1l-0.1,0.1
			h-0.1c-0.1,0-0.2,0-0.3-0.1c0.4-1.3,0.8-2.8,1.3-4.4c0.5-1.4,0.9-2.7,1.2-3.8c0.3,0.1,0.4,0.2,0.4,0.3v0.1l-0.1,0.3l-0.2,0.4h0.1
			c0.2,0,0.3-0.1,0.4-0.4l0.1-0.3c0-0.1,0.1-0.2,0.2-0.3c0,0-0.1-0.1-0.2-0.1h-0.3c-0.1,0-0.2,0-0.3-0.1l0.4-0.9l0.3-0.9
			c0.2-0.8,0.4-1.4,0.6-1.8c0,0,0.1-0.1,0.1-0.1h0.1l0.3,0.1c0.1,0,0.2,0.1,0.3,0.1c0.1,0,0.1,0,0.1-0.1V70.6z M150.1,108.6v-0.3
			c-0.1,0-0.2,0.1-0.2,0.3H150.1z M152.3,107.4c0-0.1,0-0.2,0.1-0.3l0.1-0.3v-0.1c0-0.1-0.1-0.1-0.3-0.1v0.4
			C152.2,107.3,152.2,107.4,152.3,107.4z M152.3,97.9l-0.1,0.3c0,0.2,0.1,0.3,0.2,0.3h0.1c0.1-0.2,0.1-0.3,0.1-0.4s-0.1-0.2-0.3-0.3
			L152.3,97.9z M152.6,101.7c-0.1,0-0.2-0.1-0.3-0.1v0.3c0.1,0,0.2,0.1,0.3,0.1V101.7z M152.6,105.9v-0.3l0.1-0.3v-0.1
			c0-0.1-0.1-0.2-0.2-0.2c0,0-0.1,0.1-0.1,0.3v0.2C152.4,105.6,152.5,105.8,152.6,105.9z M153,103.8v-0.3l0.1-0.3v-0.2
			c0-0.1,0-0.2-0.1-0.2c-0.1,0.1-0.2,0.3-0.2,0.5C152.8,103.6,152.9,103.7,153,103.8z M153.2,109c0.2-0.5,0.3-0.9,0.3-1.1
			c0-0.1,0-0.2-0.1-0.3c0-0.1,0-0.1-0.1-0.2c0-0.1-0.1-0.1-0.2-0.1l-0.1,0.9l-0.1,0.8H153.2z M153.3,101.3l0.2-0.6
			c0.1-0.3,0.1-0.5,0.1-0.7s0-0.4-0.1-0.5l-0.3,1.2c0,0.3-0.1,0.6-0.1,0.9v0.4L153.3,101.3z M153.2,106.9L153.2,106.9
			c0.3,0,0.5-0.3,0.5-0.8v-0.3c0-0.4-0.1-0.6-0.3-0.7v0.3c0,0.2,0,0.4-0.1,0.6l-0.1,0.4L153.2,106.9z M153.6,91.6h0.3
			c0.1,0,0.1,0,0.2-0.1h-0.3C153.7,91.5,153.6,91.5,153.6,91.6z M153.9,104.3l0.1-0.4c0-0.1,0.1-0.2,0.1-0.3c0-0.2-0.1-0.3-0.2-0.4
			c0,0.2,0,0.4-0.1,0.6l-0.1,0.3l-0.1,0.2c0,0.1-0.1,0.2-0.1,0.3c0,0.1,0.1,0.2,0.2,0.3C153.8,104.7,153.8,104.5,153.9,104.3z
			 M154.2,95.8h0.1c0.1,0,0.1,0,0.2-0.1h-0.2C154.3,95.8,154.2,95.8,154.2,95.8z M154.6,101.3v-0.1c0-0.2-0.1-0.3-0.2-0.3l-0.1,0.4
			c0,0.1,0,0.2,0.1,0.2C154.5,101.3,154.5,101.3,154.6,101.3z M154.7,100.3l0.1-0.4c0.1-0.3,0.2-0.7,0.3-1c0.1-0.4,0.1-0.7,0.1-1
			c0-0.3-0.1-0.6-0.2-0.8c0,0.2-0.1,0.5-0.2,0.9l-0.2,1c-0.1,0.5-0.1,0.9-0.1,1.2c0,0.2,0,0.4,0.1,0.5L154.7,100.3z M155.1,96.5h0.3
			v-0.1l-0.1-0.1L155.1,96.5L155.1,96.5z M155.4,96c0-0.1,0-0.2,0.1-0.3l0.2-0.3c0,0,0.1-0.1,0.1-0.1c0-0.1-0.1-0.1-0.3-0.2v0.3
			l-0.1,0.3c0,0.1-0.1,0.2-0.1,0.3C155.3,96,155.3,96,155.4,96L155.4,96z M155.9,90.1v-0.3c0-0.1-0.1-0.2-0.3-0.2h-0.1v0.1
			c0,0.3,0.1,0.4,0.3,0.4L155.9,90.1z M156.3,92.5l0.4-1.6l0.4-1.6c0.3-1.2,0.5-2.2,0.5-3l-0.5,1.8l-0.5,1.8
			c-0.3,1.3-0.5,2.4-0.5,3.3v0.3c0.1-0.1,0.1-0.2,0.1-0.3v-0.4C156.2,92.8,156.2,92.7,156.3,92.5z M156.8,86.8
			c-0.1,0-0.2-0.1-0.3-0.1l-0.2,0.1l-0.1,0.1V87c0,0,0.1,0.1,0.2,0.1c0,0,0-0.1,0.1-0.1h0.1L156.8,86.8c0,0,0.1-0.1,0.1-0.1
			l-0.1-0.1h-0.1V86.8z M156.7,80.9c0,0,0,0.1-0.1,0.1l-0.2,0.2c0,0-0.1,0.1-0.1,0.1c0,0.1,0.1,0.1,0.2,0.2c0,0,0-0.1,0.1-0.2
			l0.1-0.2c0-0.1,0.1-0.1,0.1-0.2C156.8,80.8,156.8,80.8,156.7,80.9C156.7,80.8,156.7,80.8,156.7,80.9z M157.1,130.3l-0.1,0.3
			l-0.2,0.3c-0.1,0.1-0.1,0.2-0.1,0.3c0,0,0,0.1,0.1,0.1l0.1-0.2l0.2-0.2c0.1-0.1,0.3-0.3,0.4-0.5L157.1,130.3z M157.3,82.7
			c0-0.1,0-0.2,0.1-0.3l-0.4-0.1v0.3L157.3,82.7z M157.7,80.4c-0.2,0.1-0.3,0.2-0.3,0.3l0.3-0.1c0.1-0.1,0.2-0.1,0.3-0.2v-0.1
			c0,0-0.1-0.1-0.2-0.1L157.7,80.4z M158.4,84.4c0-0.2-0.1-0.3-0.2-0.4c0,0.1,0.1,0.2,0.1,0.3c0,0.1,0,0.2-0.1,0.3l-0.2,0.4
			c-0.1,0.2-0.1,0.3-0.1,0.4c0,0.1,0,0.1,0.1,0.2C158.3,85.1,158.4,84.7,158.4,84.4z M158,129.3c0,0.1-0.1,0.2-0.1,0.3
			c0.1,0,0.1,0,0.2,0.1c0-0.1,0.1-0.1,0.1-0.1l0.1-0.2v-0.1h-0.2C158.1,129.3,158.1,129.3,158,129.3z M158.3,83.8h0.2
			c0.1,0,0.2,0,0.2-0.1h-0.1l-0.1-0.1C158.3,83.8,158.3,83.8,158.3,83.8z M158.4,83.5c0.4-0.2,0.7-0.7,0.8-1.3
			c0.1-0.3,0.1-0.5,0.2-0.9c0-0.3,0-0.5,0.1-0.8c-0.2,0.3-0.4,0.8-0.6,1.5l-0.3,0.8L158.4,83.5z M158.7,128.2l-0.2,0.3
			c-0.1,0.1-0.1,0.2-0.1,0.3c0,0,0,0.1,0.1,0.1c0,0,0.1-0.1,0.2-0.2l0.2-0.3c0.1-0.1,0.1-0.2,0.1-0.3c0-0.1-0.1-0.1-0.2-0.1
			L158.7,128.2z M158.8,73.9L158.8,73.9l0.1,0.1l0.1-0.1v-0.1c0,0,0-0.1-0.1-0.1h-0.1C158.8,73.8,158.7,73.8,158.8,73.9L158.8,73.9z
			 M158.7,84c0,0,0.1,0.1,0.2,0.1h0.1c0.1,0,0.1,0,0.1-0.1c0-0.1,0.1-0.1,0.1-0.2c0-0.1-0.1-0.1-0.2-0.1c0,0.1-0.1,0.1-0.2,0.1
			L158.7,84z M159.2,72.2c0,0.1,0.1,0.1,0.2,0.1v-0.2c0-0.2-0.1-0.3-0.2-0.3V72.2z M159.4,74.5c0,0.2-0.1,0.4-0.1,0.6
			c0,0.2,0,0.3,0.1,0.3c0,0,0.1-0.2,0.2-0.6c0.2-0.1,0.3-0.3,0.3-0.4c0-0.1-0.1-0.2-0.2-0.3C159.5,74.1,159.5,74.3,159.4,74.5z
			 M160.6,125.4l-0.4,0.5l-0.4,0.6c-0.3,0.4-0.4,0.8-0.4,1v0.1c0.1-0.2,0.2-0.4,0.3-0.6l0.3-0.4
			C160.4,126.2,160.6,125.8,160.6,125.4h0.1c0-0.1,0-0.1,0.1-0.1l0.1-0.4C160.8,124.8,160.7,125,160.6,125.4z M160.2,76.2l0.1-0.4
			c0-0.1,0.1-0.1,0.1-0.2c0-0.1-0.1-0.2-0.2-0.2h-0.1c0,0.1-0.1,0.2-0.2,0.3l-0.2,0.2l-0.1,0.2l0.2,0.1l0.2,0.2
			c0.1,0,0.1,0.1,0.2,0.1s0.1,0,0.1-0.1C160.2,76.3,160.2,76.3,160.2,76.2z M159.9,124.3l-0.1,0.3l-0.2,0.3c0,0.1-0.1,0.1-0.1,0.2
			c0,0.1,0,0.1,0.1,0.2l0.1-0.2l0.2-0.2c0.1-0.2,0.2-0.4,0.3-0.6H159.9z M160.2,69.3c0.3-0.3,0.6-0.7,0.8-1.2c0.2-0.4,0.3-0.7,0.3-1
			c0-0.2,0-0.3-0.1-0.4l-0.3,0.6l-0.3,0.6C160.4,68.5,160.3,69,160.2,69.3z M161.3,64L161.3,64c0.2,0,0.4-0.1,0.5-0.3
			c-0.1,0-0.1,0-0.2-0.1v-0.2h0.1c0.2,0,0.4-0.1,0.6-0.4c-0.1,0-0.1-0.1-0.1-0.2v-0.1c0,0-0.1-0.1-0.3-0.1c-0.1,0-0.2,0-0.3,0.1
			h-0.3c-0.1,0-0.2,0-0.3-0.1l-0.1,0.3l-0.1,0.3v0.1c0,0.2,0.1,0.3,0.2,0.3v-0.1l0.1-0.1c0-0.1,0.1-0.1,0.1-0.1l-0.1,0.7l-0.5-0.1
			c0,0-0.1,0.1-0.1,0.1c0,0,0,0.1,0.1,0.1c0,0.1,0.1,0.1,0.2,0.1h0.3c0,0,0.1-0.1,0.1-0.2v-0.1C161.1,63.9,161.2,64,161.3,64z
			 M160.7,123.2c0,0.1-0.1,0.2-0.1,0.3h0.2c0-0.1,0.1-0.1,0.1-0.1c0-0.1,0.1-0.2,0.1-0.3h-0.2C160.8,123.2,160.8,123.2,160.7,123.2z
			 M161,75.7l0.2-0.3c0-0.1,0.1-0.2,0.1-0.3s0-0.2-0.1-0.3c0,0-0.1,0.1-0.1,0.3l-0.1,0.3c0,0.1-0.1,0.2-0.1,0.3c0,0.1,0,0.2,0.1,0.2
			C160.9,75.8,160.9,75.7,161,75.7z M161.3,122.1l-0.2,0.2c0,0.1-0.1,0.2-0.1,0.3c0,0,0,0.1,0.1,0.1l0.1-0.2l0.2-0.3
			c0-0.1,0.1-0.2,0.1-0.3c0-0.1-0.1-0.1-0.2-0.1V122.1z M162.7,121.7l-0.6,1c-0.5,0.8-0.9,1.5-1,2c0.1-0.2,0.3-0.6,0.6-1l0.7-1.1
			c0.5-0.8,0.8-1.5,0.8-2v-0.1C163.1,120.9,162.9,121.2,162.7,121.7z M161.7,65.6L161.7,65.6c0.1,0.1,0.2,0,0.3,0v-0.1
			c0-0.1,0-0.1-0.1-0.1h-0.1c0,0-0.1,0-0.2,0.1L161.7,65.6z M169.5,45.6c0-0.1-0.1-0.3-0.1-0.4c0-0.3,0.1-0.5,0.2-0.8l0.3-0.6
			l0.3-0.4c0.3-0.5,0.4-0.9,0.4-1.3c0-0.3-0.1-0.5-0.2-0.7c-0.1,0.2-0.4,0.5-0.9,0.8c0,0.1,0.1,0.1,0.3,0.2l0.1,0.1
			c0.1,0,0.1,0.1,0.1,0.1c-0.2,0.1-0.4,0.3-0.6,0.6l-0.2,0.3l-0.2,0.4c-0.2,0.4-0.4,0.6-0.7,0.6c-0.1,0-0.3,0-0.4-0.1
			c0,0.1,0.1,0.2,0.1,0.3v0.1l-0.1,0.3v0.1c0,0.2,0,0.3,0.1,0.4c-0.1,0-0.1,0.1-0.2,0.2l-0.1,0.3c-0.1,0.3-0.3,0.4-0.6,0.4l0.1,0.1
			l0.3,0.1c0.1,0.1,0.2,0.1,0.2,0.2v0.1c0,0.1-0.1,0.3-0.3,0.5l-0.3,0.6c-0.2,0.3-0.3,0.5-0.3,0.6s0,0.3,0.1,0.4h-0.5
			c-0.1,0-0.2,0-0.3-0.1c0,0,0,0.1,0.1,0.3l0.1,0.3v0.1c0,0.1-0.1,0.2-0.3,0.2c0,0-0.1,0-0.3-0.1c0,0.1,0.1,0.2,0.1,0.3
			c0,0.4-0.1,0.9-0.4,1.5l-0.4,1c-0.1,0.3-0.2,0.7-0.3,1l-0.2,0.1l-0.1-0.1c0,0-0.1-0.1-0.2-0.1c0,0.1,0,0.3-0.1,0.6l-0.1,0.7
			c0,0.2-0.1,0.3-0.1,0.5c0,0.3,0.1,0.4,0.2,0.6h-0.2c-0.1,0-0.2,0-0.3,0.1l-0.2,0.1l-0.3,0.1c0,0,0,0.1-0.1,0.3l-0.1,0.4
			c0,0.1-0.1,0.2-0.1,0.3s0,0.1,0.1,0.1c0,0,0-0.1,0.1-0.1l0.2,0.1c0.2,0.1,0.3,0.2,0.3,0.3c-0.1,0-0.2,0.1-0.3,0.3l-0.1,0.1
			c0,0-0.1,0.1-0.1,0.1h-0.1c-0.1,0-0.1-0.1-0.1-0.3l-0.1-0.2c0,0,0-0.1-0.1-0.1c-0.2,0.3-0.3,0.7-0.4,1.1l-0.3,1
			c-0.3,0.8-0.5,1.3-0.7,1.6h0.1c0.2,0,0.3,0.1,0.3,0.3v0.3c0,0.1,0,0.2,0.1,0.3l0.1-0.1c0,0,0.1,0,0.1,0.1l0.2,0.1
			c0.1,0,0.2,0.1,0.3,0.1c0-0.1,0.1-0.2,0.1-0.3c0-0.1,0-0.3-0.1-0.4l-0.1-0.3l-0.1-0.3l0.5,0.1c0.1-0.6,0.3-1.2,0.6-2l0.4-1
			l0.4-0.9c0.7-1.5,1-2.5,1-3.2c0.2-0.3,0.4-0.6,0.6-1c0.3-0.5,0.5-0.9,0.7-1.3c0.5-1.1,0.8-2,0.8-2.7h0.1l0.1-0.2l0.2-0.2
			c0.1-0.2,0.3-0.3,0.4-0.3c0-0.1-0.1-0.2-0.1-0.3c0-0.3,0.1-0.5,0.3-0.8C168.9,46.1,169.2,45.8,169.5,45.6z M162,73.5
			c0,0-0.1,0.1-0.1,0.2v0.1c0,0,0,0.1,0.1,0.1h0.2c0.1,0,0.1-0.1,0.1-0.2c0,0-0.1,0-0.1-0.1l-0.1-0.1L162,73.5z M163,119.2l-0.4,0.5
			l-0.3,0.6c-0.2,0.4-0.3,0.7-0.3,1v0.1c0-0.2,0.1-0.3,0.3-0.5l0.3-0.5C162.7,120,162.9,119.6,163,119.2L163,119.2
			c0.1-0.1,0.2-0.2,0.3-0.2l0.1-0.4C163.2,118.6,163.1,118.8,163,119.2z M162.4,69.7v-0.3c0-0.1-0.1-0.2-0.2-0.2
			c-0.1,0.1-0.1,0.2-0.1,0.3c0,0.2,0.1,0.3,0.3,0.4L162.4,69.7z M164.7,115.2l-0.6,1c-0.5,0.8-0.8,1.5-0.8,2.1
			c0.1-0.3,0.3-0.6,0.5-1l0.7-1.2c0.4-0.8,0.6-1.5,0.6-1.9v-0.1C165,114.4,164.9,114.8,164.7,115.2z M163.4,68.6
			c0,0-0.1,0.1-0.1,0.2v0.1l0.1,0.2c0,0,0.1,0.1,0.2,0.1c0.1,0,0.1,0,0.2-0.1c0,0-0.1,0-0.1-0.1l-0.1-0.1
			C163.6,68.6,163.6,68.6,163.4,68.6z M164.1,67.2l-0.3-0.1c-0.1,0-0.2,0-0.2,0.1c0,0,0.1,0,0.1,0.1v0.2c0,0.1,0.1,0.2,0.3,0.3
			L164.1,67.2z M167.3,111.4c0.1-0.1,0.2-0.4,0.4-0.8l0.2-0.5l0.3-0.5c0.3-0.6,0.4-1,0.4-1.2v-0.1c-0.6,1.2-1.4,3-2.4,5.5l-1.2,3
			l-1.3,3C165.1,117.3,166.3,114.5,167.3,111.4z M164.2,66.7c0.1-0.1,0.1-0.2,0.1-0.3c0-0.2-0.1-0.3-0.3-0.3l0.1,0.2v0.2
			C164.1,66.5,164.1,66.6,164.2,66.7z M164.7,58.2c-0.1,0-0.2-0.1-0.3-0.1l-0.1,0.4c0.1,0,0.2,0.1,0.3,0.1L164.7,58.2z M164.4,62.9
			h0.2c0.1,0,0.1,0,0.1-0.1l-0.2-0.1C164.5,62.8,164.4,62.9,164.4,62.9z M165.1,64.1c0-0.1,0-0.2,0.1-0.3h-0.3V64
			C165,64,165.1,64,165.1,64.1z M165.1,56.2l0.2,0.1l0.2,0.1V56c0-0.1-0.1-0.2-0.3-0.2L165.1,56.2z M167.8,107.6l-1.1,3l-1.3,3
			c1.3-2.5,2.5-5.3,3.6-8.3c0-0.1,0.2-0.4,0.4-0.8l0.2-0.5l0.3-0.5c0.3-0.5,0.4-0.9,0.4-1.1c0,0-0.2,0.3-0.4,0.8
			C169.4,103.7,168.8,105.2,167.8,107.6z M166.1,54.7l0.3-0.6c0.1-0.2,0.1-0.4,0.1-0.5s-0.1-0.2-0.2-0.3l-0.1,0.5l-0.1,0.4
			c-0.1,0.3-0.1,0.5-0.1,0.7v0.2C165.9,55,166,54.9,166.1,54.7z M166.7,58.3c0.1-0.2,0.2-0.4,0.3-0.8c-0.1,0-0.1-0.1-0.2-0.1
			c-0.1,0-0.1,0-0.2,0.1c-0.1,0.1-0.2,0.2-0.3,0.3c0,0.1,0,0.2,0.1,0.3C166.5,58.2,166.6,58.3,166.7,58.3z M167.2,54.8
			c0-0.2-0.1-0.3-0.2-0.3l-0.1,0.4c0,0.1,0,0.1,0.1,0.2L167.2,54.8c0,0.1,0,0.1,0,0.1V54.8z M167.4,57.5c0-0.1,0.1-0.2,0.1-0.3
			c0-0.2-0.1-0.3-0.2-0.3l-0.1,0.3c0,0,0.1,0.1,0.1,0.1L167.4,57.5z M169,52.2L169,52.2L169,52.2L169,52.2h-0.2
			c-0.1,0-0.1,0.1-0.2,0.3v0.1c0,0,0,0.1,0.1,0.2l0.1-0.2l0.1-0.1L169,52.2z M169.8,49.8c0,0,0.1,0.1,0.2,0.1c0.1,0,0.3-0.1,0.4-0.4
			c0.1-0.2,0.1-0.4,0.1-0.6c0-0.1,0-0.2-0.1-0.3c0,0.3-0.1,0.5-0.3,0.6l-0.2,0.2C169.9,49.5,169.9,49.7,169.8,49.8z M171.2,40.6
			c0.1,0,0.2,0.1,0.3,0.1l0.1-0.4l0.1-0.4c0-0.3,0.1-0.5,0.2-0.8c0,0-0.1,0.1-0.3,0.1l-0.3-0.1v0.4l-0.1,0.3c0,0.1-0.1,0.3-0.1,0.4
			S171.2,40.5,171.2,40.6h-0.1c0,0,0,0.1-0.1,0.1l-0.1,0.1c-0.1,0-0.2,0.1-0.2,0.3c0.2,0.1,0.3,0.1,0.4,0.1s0.3-0.1,0.4-0.2
			C171.5,40.9,171.4,40.8,171.2,40.6z M172.1,38.5L172.1,38.5c0-0.1,0-0.1-0.1-0.1h-0.1c-0.1,0-0.1,0-0.2,0.1L172.1,38.5z
			 M173.6,35.5L173.6,35.5l0.1,0.1h0.1c0,0,0.1,0,0.1-0.1c0-0.1,0-0.1-0.1-0.1L173.6,35.5L173.6,35.5z"/>
		<path class="st1" d="M192.5,97.9c0.2,0.2,0.3,0.4,0.4,0.7c0,0.1,0.1,0.2,0.1,0.3c0,0.1,0,0.1-0.1,0.2c-0.2,0.1-0.5,0.4-0.8,1
			s-0.8,1.2-1.5,2c-0.8,1.1-1.3,2-1.5,2.8l-0.1,0.1c-0.8,1-1.9,2.3-3.1,3.9l-1.5,2l-1.5,2c-1.4,1.8-2.5,3.1-3.5,4l-0.3,0.3l-0.1,0.1
			l-0.3,0.2l-0.4,0.4l-0.4,0.4l-1,0.6l-0.4,0.3l-0.5,0.2c-0.6,0.2-1.3,0.3-2,0.3c-0.7,0-1.3-0.3-1.9-0.6l-0.2-0.1
			c-1.1-0.5-2.1-1.4-2.8-2.8l-0.4-1l-0.2-0.6l-0.1-0.3l-0.1-0.2c0-0.2-0.1-0.5-0.1-1c0-0.3-0.1-0.7-0.1-1l0.1-0.7l0.1-0.7l0.2-1.3
			c0.1-0.8,0.2-1.6,0.3-2.4l0.1-0.1c0.2-0.3,0.3-0.7,0.4-1.1l0.1-1.1c0.1-0.9,0.3-1.6,0.6-2.1l0.1-0.1c0.2-1.6,0.5-3.5,1.1-5.5
			c0.4-1.5,0.9-3.3,1.6-5.3v-0.3l-0.1-0.4c0-0.1,0-0.2,0.1-0.3c0.3-0.4,0.5-1,0.6-1.6l0.1-1l0.1-1.1c0-0.2,0.2-0.4,0.5-0.4h0.2
			c0.3,0,0.5,0.1,0.8,0.2l0.3,0.1c0.3,0.1,0.5,0.2,0.7,0.4c0.3,0.2,0.6,0.5,1.1,0.8l0.6,0.4l0.6,0.4c0.2,0.1,0.3,0.3,0.4,0.4
			c0.1,0.3,0.1,0.7,0.1,1c0,0.6-0.1,1.1-0.4,1.5v0.5l-0.1,0.1v0.1c0,0,0,0.1,0.1,0.1c-0.2,0.4-0.4,0.8-0.6,1.3l-0.4,1.3
			c-0.3,1.1-0.6,1.9-1,2.5v0.6c0,0.3,0,0.5-0.1,0.7c-0.1,0.4-0.3,0.7-0.6,0.9c-0.1,0.1-0.2,0.2-0.2,0.3v0.1c0,0.2,0.1,0.4,0.1,0.6
			c0,0.5-0.1,1-0.4,1.6l-0.2,0.5l-0.2,0.4c0,0.2-0.1,0.4-0.1,0.6c0,0.2,0,0.3,0.1,0.5c0,0.1,0,0.2-0.1,0.3c-0.2,0.3-0.4,0.6-0.4,1.1
			l-0.1,0.6c0,0.2-0.1,0.4-0.2,0.6c0,0.1,0.2,0.2,0.4,0.2l-0.1,0.1l-0.2,0.1c-0.2,0.1-0.3,0.2-0.3,0.4v0.1c0,0.1,0.1,0.2,0.1,0.3
			c0,0.3-0.1,0.5-0.2,0.8l-0.2,0.5l-0.1,0.4v0.1c0,0.2,0.1,0.4,0.1,0.7c0,0.2,0,0.4-0.1,0.6v0.6l-0.1,0.3v0.4c0,0.5,0.1,0.7,0.3,0.8
			c0,0,0.1,0,0.1,0.1l-0.1,0.3l0.1,0.3c0,0.1,0.1,0.1,0.1,0.1c0.1,0,0.2,0,0.3-0.1c0,0,0.1-0.1,0.1-0.1h0.1c0.1,0.2,0.2,0.3,0.4,0.3
			c0.1,0,0.3-0.1,0.4-0.3l0.3-0.3l0.2-0.1l0.1-0.1l0.2-0.1l0.1-0.1c0,0,0-0.1-0.1-0.1l-0.1-0.1l0.1-0.2c0.5-0.3,1-0.8,1.7-1.5
			l0.8-0.9c0.3-0.3,0.6-0.6,0.9-0.8c0.1,0,0.1-0.1,0.1-0.3c0-0.2,0.1-0.4,0.2-0.6l0.4-0.5c0.3-0.4,0.5-0.8,0.6-1.1h0.2l0.1-0.1
			c0,0,0.1-0.1,0.1-0.1c0,0,0.1,0,0.1,0.1c0.1-0.5,0.5-1.1,1.1-1.8l0.6-0.8c0.3-0.3,0.4-0.7,0.5-1c0-0.1,0.1-0.1,0.2-0.2
			c0.2-0.1,0.4-0.3,0.6-0.6l0.5-0.7c0.4-0.6,0.8-1,1.1-1.1l-0.1-0.1l-0.1-0.1h-0.1v-0.1c0.1-0.3,0.3-0.5,0.4-0.7l0.4-0.6
			c0.3-0.5,0.8-1.1,1.3-1.9c0.5-0.8,1.1-1.6,1.8-2.3l0.2,0.1l0.1-0.1c0.1-0.2,0.3-0.3,0.6-0.3h0.1C190.8,94.9,191.5,95.9,192.5,97.9
			z M170.6,114.2c0.1,0.3,0.2,0.4,0.3,0.4c-0.3-1.1-0.4-2.5-0.4-4.1c0-0.6,0-1.3,0.1-2c0.1-2.2,0.4-4.5,0.8-6.7
			c-0.8,2.8-1.1,5.3-1.1,7.7c0,0.5,0,1.1,0.1,1.6v1c0,0.5,0,0.8,0.1,1.1C170.4,113.6,170.5,113.9,170.6,114.2z M175.4,117.5
			c0.3,0,0.4-0.1,0.4-0.1c-1-0.1-1.8-0.3-2.4-0.6c-0.7-0.4-1.2-1.1-1.5-2.1c-0.4-1.1-0.6-2.6-0.6-4.3c0-0.6,0-1.3,0.1-2
			c-0.2,1.1-0.3,2.1-0.3,3c0,0.4,0,0.8,0.1,1.2c0.1,0.9,0.3,1.6,0.5,2.2c0.3,0.8,0.7,1.4,1.3,1.8l0.3,0.3l0.4,0.3l0.4,0.2l0.4,0.1
			l0.5,0.1H175.4z M171.5,106.6l0.3-1.1c0.2-0.8,0.3-1.5,0.3-2v-0.3c-0.1,0.3-0.2,0.7-0.3,1.2l-0.2,0.6l-0.1,0.6
			c-0.1,0.6-0.2,1.1-0.2,1.5c0,0.3,0,0.6,0.1,0.8C171.4,107.4,171.5,107,171.5,106.6z M172.4,97.5l-0.2,0.6l-0.3,0.7
			c-0.2,0.7-0.3,1.2-0.3,1.6c0,0.2,0,0.4,0.1,0.5c0-0.4,0.1-0.8,0.3-1.3l0.4-1.1c0.3-0.8,0.4-1.5,0.4-2v-0.2
			C172.7,96.7,172.6,97,172.4,97.5z M172,102.9c0.1,0,0.1-0.1,0.2-0.3v-0.4l0.3-0.6l0.2-0.6c0.1-0.3,0.1-0.6,0.1-0.8
			c0-0.2,0-0.3-0.1-0.4c0,0.2-0.1,0.4-0.1,0.6l-0.2,0.5c-0.1,0.4-0.2,0.7-0.2,1.1v0.3h-0.1c0,0.1,0,0.2-0.1,0.2V102.9z M172.9,96.3
			c0.1,0,0.2-0.3,0.3-0.6l0.3-0.6l0.3-0.6c0.1-0.4,0.2-0.7,0.2-1c0-0.1,0-0.2-0.1-0.3c0,0.2-0.1,0.4-0.2,0.6l-0.2,0.5
			c-0.2,0.3-0.3,0.7-0.3,1.1v0.3H173c0,0.1,0,0.1-0.1,0.2V96.3z M173.2,99.1l0.1-0.3c0-0.1,0.1-0.1,0.1-0.2c0-0.1,0-0.1-0.1-0.2
			l-0.1,0.2l-0.1,0.3c0,0.1-0.1,0.1-0.1,0.2c0,0.1,0.1,0.2,0.2,0.2h0.1V99.1z M173.5,97.8v-0.3c0,0-0.1,0-0.2,0.1
			c0,0.1,0,0.1-0.1,0.1c0,0.1,0,0.2-0.1,0.3c0.1,0,0.1,0,0.2-0.1C173.4,97.8,173.5,97.8,173.5,97.8z M174,95.7l-0.1,0.3
			c-0.1,0.2-0.1,0.4-0.1,0.6l0.3-0.1v-0.3l0.1-0.3c0-0.1,0.1-0.1,0.1-0.2c0-0.1-0.1-0.2-0.2-0.2L174,95.7z M174.3,92l-0.1,0.3
			c0,0.1-0.1,0.2-0.1,0.3c0,0.1,0,0.1,0.1,0.1h0.1v-0.3l0.1-0.3c0-0.1,0.1-0.1,0.1-0.2c0-0.1,0-0.1-0.1-0.2
			C174.3,91.8,174.3,91.9,174.3,92z M174.4,91.1v0.3h0.2c0-0.1,0-0.2,0.1-0.2v-0.3h-0.2C174.5,91,174.5,91,174.4,91.1z M175.3,89.1
			l-0.1,0.2c-0.1,0.2-0.1,0.4-0.2,0.6l0.3-0.1v-0.3l0.1-0.3c0-0.1,0.1-0.2,0.1-0.3c0,0,0-0.1-0.1-0.1L175.3,89.1z M175.4,82v-0.1
			c0-0.1,0-0.1,0.1-0.2c0.3-0.4,0.4-1,0.6-1.6l0.1-1l0.1-1c0-0.2,0.1-0.4,0.4-0.4h0.2c0.3,0,0.5,0.1,0.8,0.2l0.3,0.1
			c0.3,0.1,0.5,0.2,0.6,0.3c0.2,0.2,0.6,0.5,1.1,0.8l0.6,0.4l0.6,0.4c0.2,0.1,0.3,0.3,0.3,0.4c0,0.1,0.1,0.3,0.1,0.4
			c0,0.4-0.1,0.9-0.3,1.5c-0.1,0.3-0.2,0.6-0.3,0.9c-0.1,0.2-0.3,0.4-0.4,0.6v0.3l-0.1,0.1c-0.2,0.1-0.3,0.1-0.5,0.1
			c-0.3,0-0.5-0.1-0.8-0.2l-0.6-0.3c-0.3-0.1-0.5-0.2-0.8-0.2c-0.4,0-0.7-0.1-1-0.1l-0.8-0.6v-0.1L175.4,82z"/>
		<path class="st1" d="M212.8,87.7c0.3,0.3,0.5,0.5,0.7,0.8c0.1,0.2,0.1,0.3,0.1,0.4c0,0,0,0.1-0.1,0.1l-0.5,0.2l-0.5,0.2
			c-0.3,0.3-0.5,0.5-0.5,0.8c0,0.1,0,0.1-0.1,0.1l-0.3,0.1c0,0-0.1,0-0.1,0.1l-0.8,1.4l-0.8,1.5c-0.7,1.3-1.3,2.3-1.8,3v0.4
			c0,0.3-0.1,0.6-0.4,1l-0.2,0.3l-0.2,0.3c-0.1,0.2-0.1,0.3-0.1,0.5v0.2l-0.1,0.1c-0.2,0.3-0.4,0.8-0.6,1.3l-0.5,1.5
			c-0.4,1.2-0.9,2.1-1.3,2.6v0.1c-0.3,1.5-0.9,3.5-1.9,6l-1.1,3c-0.4,1.1-0.8,2.2-1,3.1v0.1c-0.2,0.1-0.3,0.2-0.4,0.4l-0.4,0.6
			l-0.8,1.2c-0.7,1-1.5,1.6-2.3,1.9c0,0.1-0.1,0.2-0.2,0.3l-0.1,0.2l-0.1,0.1l-0.1,0.1l-0.1,0.1l-0.5,0.1c-0.2,0-0.3,0.1-0.4,0.3
			c-0.1,0-0.2,0-0.3-0.1l-0.7,0.1l-0.7,0.1c-0.1,0-0.3-0.1-0.4-0.1l-0.3-0.3l-0.3-0.3c-0.2-0.1-0.3-0.2-0.3-0.3v-0.1
			c-0.5-0.2-1-0.5-1.4-1c-0.3-0.3-0.5-0.7-0.7-1.1l-0.3-0.5l-0.3-0.4c-0.2-0.3-0.4-0.6-0.6-0.8l-0.1-0.1l-0.3-1.5l-0.1-0.8l-0.1-0.8
			c-0.1-0.6-0.2-1.1-0.3-1.5l-0.1-0.8l-0.1-0.7c-0.1-0.8-0.1-1.5-0.1-2.2c0-1.2,0.1-2.3,0.4-3.4v-0.1c-0.1-0.4-0.2-0.9-0.2-1.5
			c0-0.3,0-0.7,0.1-1.1l0.1-1.3c0-0.3,0.1-0.5,0.1-0.7c0-0.2,0-0.4-0.1-0.6l0.1-0.1c0.1-0.2,0.2-0.4,0.2-0.6l-0.1-0.6v-0.4
			c0-0.3,0.1-0.6,0.3-0.8l0.1-0.1c0-0.3-0.1-0.6-0.1-0.9c0-0.6,0.1-1.4,0.2-2.2l0.3-1.5l0.3-1.5l-0.1-0.1l-0.2-0.2l-0.1-0.1
			c0,0,0-0.1,0.1-0.1c0.1-0.2,0.2-0.4,0.2-0.7V90c-0.1-0.3-0.2-0.6-0.4-1.1v-0.1c0,0,0.1-0.1,0.3-0.2h0.3c0.3,0,0.5,0,0.8,0.1
			l0.4,0.1c0.3,0,0.5,0,0.8,0.1c0.3,0.1,0.8,0.2,1.5,0.4l0.8,0.1l0.7,0.2c0.3,0.1,0.5,0.2,0.5,0.3c0.3,0.3,0.5,0.7,0.5,1
			c0,0.2-0.1,0.3-0.2,0.5v0.1l0.1,0.1v0.2c0,0,0.1,0.1,0.2,0.1c-0.2,0.2-0.3,0.4-0.3,0.7l-0.1,0.7c-0.1,0.6-0.3,1.1-0.5,1.4v0.1
			c0.1,0.2,0.1,0.3,0.1,0.4v0.1c0,0.2-0.1,0.4-0.4,0.5c-0.1,0-0.1,0.1-0.1,0.2V96c0.2,0.2,0.3,0.4,0.3,0.6c0,0.2,0,0.4-0.1,0.6
			l-0.1,0.3l-0.1,0.3v0.1c0,0.2,0.1,0.3,0.2,0.5v0.1l-0.1,0.1c-0.2,0.2-0.3,0.4-0.3,0.6l-0.1,0.4l-0.1,0.3c0,0,0.1,0.1,0.3,0.1h0.3
			l-0.1,0.1l-0.1,0.1c-0.2,0.1-0.3,0.1-0.3,0.2v0.1c0.1,0.1,0.1,0.2,0.1,0.3s0,0.2-0.1,0.3l-0.1,0.3l-0.1,0.3v0.1
			c0.1,0.2,0.1,0.5,0.1,0.8c0,0.3,0,0.5-0.1,0.8l-0.1,0.7v0.3c0,0.2,0,0.3,0.1,0.4v0.1l-0.2,0.3l-0.1,0.3v0.1c0,0.2,0.1,0.3,0.2,0.4
			c0.1,0,0.1,0.1,0.1,0.1v0.1c-0.2,0.2-0.3,0.4-0.3,0.6v0.8c0,0.3-0.1,0.6-0.2,0.7c0,0,0.1,0.1,0.2,0.1l0.1,0.1l0.1,0.1
			c-0.2,0.3-0.3,0.7-0.3,1.3v0.6c0,0.3,0,0.5-0.1,0.6c0,0,0,0.1,0.1,0.1c0.1,0.1,0.2,0.2,0.3,0.3l0.1,0.3v0.1c0,0.3,0.1,0.4,0.3,0.5
			l-0.1,0.1l-0.1,0.1c0,0.1-0.1,0.1-0.2,0.1c0.2,0.3,0.3,0.6,0.4,1c0,0.5,0.2,0.8,0.4,1c0,0,0.1,0,0.1,0.1l-0.1,0.1
			c0,0.1-0.1,0.2-0.1,0.3v0.1l0.1,0.4c0.1,0.2,0.1,0.4,0.1,0.5s0,0.2-0.1,0.3l0.1-0.1l0.1-0.1l0.2,0.3c0.1,0,0.2-0.2,0.3-0.4
			l0.2-0.2l0.2-0.3l0.2,0.1l0.1,0.1c0-0.1-0.1-0.2-0.1-0.3c0-0.2,0.1-0.4,0.2-0.7l0.2-0.5c0-0.1,0.1-0.3,0.1-0.4v-0.2
			c0,0,0-0.1,0.1-0.1c0.1-0.1,0.3-0.3,0.4-0.6l0.2-0.6c0.2-0.6,0.4-1,0.7-1.3c0,0-0.1-0.1-0.1-0.1l-0.1-0.1l-0.1-0.1
			c0.3-0.1,0.4-0.4,0.6-0.7l0.1-0.4c0-0.1,0.1-0.2,0.3-0.3c0.1,0,0.1-0.1,0.1-0.1c0-0.3,0-0.5,0.1-0.8l0.3-0.8
			c0.2-0.5,0.3-1,0.3-1.4v-0.2l0.1-0.1h0.3v-0.3c0-0.3,0.1-0.6,0.3-1l0.3-0.6c0-0.1,0.1-0.3,0.1-0.4s0-0.2-0.1-0.3v-0.1
			c0,0,0.1-0.1,0.2-0.1c0.2-0.1,0.3-0.3,0.4-0.5v-0.8c0.2-0.2,0.3-0.4,0.4-0.7l0.1-0.4l0.1-0.4c0.2-0.8,0.4-1.4,0.8-1.6l0.1-0.1
			v-0.4l0.1-0.4c0-0.3,0.2-0.5,0.4-0.6c0,0,0.1-0.1,0.1-0.1c0-0.1,0-0.2-0.1-0.3l-0.1-0.1l-0.1-0.1c0.2,0.1,0.3,0.1,0.4,0.1h0.1
			c0-0.1,0-0.3,0.1-0.4l0.2-0.4c0.1-0.2,0.2-0.4,0.2-0.6c0-0.1,0-0.2-0.1-0.3c0-0.1,0-0.1,0.1-0.2c0.2-0.1,0.4-0.3,0.4-0.6l0.1-0.4
			l0.1-0.3c0.1-0.6,0.4-1.1,0.8-1.3c0.1,0,0.1-0.1,0.1-0.2v-0.1c0-0.1-0.1-0.3-0.1-0.4s0-0.3,0.1-0.4c0.1-0.2,0.3-0.4,0.5-0.6
			c0,0,0.1,0,0.1-0.1c0-0.5,0.2-1.1,0.6-1.8l0.4-0.8c0.2-0.3,0.3-0.6,0.4-1c0.1,0,0.1,0.1,0.2,0.1s0.1,0,0.1-0.1l0.1-0.1l0.1-0.1
			c0.1,0,0.2-0.1,0.2-0.1c0.1-0.3,0.2-0.5,0.4-0.8c0.3-0.3,0.6-0.4,1.1-0.4h0.1c0.1,0,0.3,0,0.4,0.1c0.3,0.2,0.7,0.5,1.3,0.9
			l0.6,0.4l0.6,0.4c0.2,0.1,0.4,0.3,0.6,0.5L212.8,87.7z M195.9,118.7l-0.2-0.1c-0.1,0.2-0.3,0.3-0.6,0.4c-0.3,0-0.4,0.1-0.4,0.2
			C195.2,119.1,195.6,119,195.9,118.7z M197,117.8c0-0.1,0.1-0.2,0.1-0.3H197c0,0.1-0.1,0.1-0.1,0.1c-0.1,0.1-0.1,0.2-0.2,0.3h0.2
			C196.9,117.8,196.9,117.8,197,117.8z M197.5,116.9l0.3-0.3c0.1-0.1,0.1-0.2,0.1-0.3c0,0,0-0.1-0.1-0.1l-0.1,0.3l-0.1,0.3
			c-0.1,0.1-0.2,0.2-0.2,0.3h0.1L197.5,116.9z M199.8,112.8c-0.1,0-0.1,0.1-0.2,0.2l-0.1,0.4l-0.2,0.3l-0.2,0.3l-0.3,0.6
			c-0.3,0.5-0.5,0.9-0.5,1.2l0.3-0.6l0.3-0.5c0.3-0.4,0.4-0.8,0.6-1.3l0.1-0.1c0-0.1,0-0.1,0.1-0.1L199.8,112.8z M199,112.5
			l-0.1,0.3l-0.2,0.3c0,0.1-0.1,0.2-0.1,0.3c0,0,0,0.1,0.1,0.1l0.1-0.2l0.1-0.3c0.1-0.2,0.2-0.4,0.3-0.6L199,112.5z M199.8,111.3
			c0-0.1,0.1-0.2,0.1-0.3h-0.1l-0.1,0.1c0,0.1-0.1,0.1-0.1,0.1c0,0.1,0,0.2-0.1,0.3h0.1l0.1-0.1
			C199.8,111.4,199.8,111.4,199.8,111.3z M199.8,112.6c0.1-0.2,0.3-0.6,0.6-1.1l0.6-1.3c0.5-1,0.7-1.8,0.7-2.2
			c-0.1,0.4-0.2,0.8-0.4,1.3l-0.5,1.1C200.3,111.3,200,112.1,199.8,112.6z M200.2,110l-0.1,0.3c-0.1,0.1-0.1,0.2-0.1,0.3
			c0,0,0,0.1,0.1,0.1c0,0,0-0.1,0.1-0.2l0.1-0.3c0-0.1,0.1-0.2,0.1-0.3c0,0,0-0.1-0.1-0.1h-0.1V110z M201.9,106
			c-0.1,0-0.1,0.1-0.2,0.3l-0.1,0.4l-0.3,0.6L201,108c-0.2,0.5-0.3,0.8-0.3,1.1v0.1l0.2-0.6l0.3-0.6c0.2-0.4,0.4-0.9,0.4-1.3h0.1
			c0-0.1,0-0.1,0.1-0.2L201.9,106z M203.1,102.4l-0.5,1.1c-0.4,1-0.6,1.7-0.7,2.3c0.1-0.3,0.2-0.7,0.4-1.2l0.6-1.3
			c0.4-1,0.6-1.7,0.6-2.1v-0.1C203.4,101.5,203.2,102,203.1,102.4z M205.2,98.1c0.1-0.2,0.2-0.5,0.3-1l0.3-0.5L206,96
			c0.3-0.7,0.4-1.1,0.4-1.3v-0.1c-0.6,1.4-1.3,3.3-2.2,5.9l-1.1,3.3l-1.1,3.3C203.1,104.6,204.2,101.6,205.2,98.1z M208,89.7
			l0.3-0.4l0.2-0.4c0.2-0.3,0.3-0.4,0.3-0.4c-0.4,0.5-0.9,1.4-1.5,2.7c-0.3,0.8-0.7,1.9-1.2,3l-1.1,3.3l-1.1,3.3
			c0.5-1.1,1-2.6,1.6-4.2l0.8-2.3l0.4-1.2l0.4-1.3C207.2,91.1,207.5,90.5,208,89.7z"/>
		<path class="st1" d="M246.1,97.7c0.3,0.6,0.4,1.1,0.4,1.5c0,0.3-0.1,0.6-0.2,0.8v0.1c-0.3,0.2-0.5,0.5-0.7,0.8
			c-0.4,0.6-1.4,1.8-3,3.6l-1.9,2.1c-0.7,0.8-1.3,1.6-1.8,2.2l-0.2,0.2c-2.5,2.1-4.9,3.8-7.1,5.3c-1.2,0.8-2.5,1.6-3.8,2.3
			c-1.6,0.8-3,1.5-4.3,2c-1.7,0.6-3.3,1-4.9,1.1h-1c-1.8,0-3.4-0.3-4.8-1c-1-0.5-1.9-1.2-2.7-2.1c-0.6-0.8-1.1-1.7-1.5-2.8
			c-0.4-1.1-0.6-2.3-0.6-3.5c0-0.6,0-1.2,0.1-1.8v-1.3l0.1-1.1c0.1-0.8,0.2-1.5,0.4-2.2c0.3-1.4,0.8-2.8,1.5-4.1
			c1.1-2.5,2.8-4.9,5.1-7.4l0.2-0.1l0.9-0.6l0.8-0.7l0.8-0.6l0.4-0.4c0.2-0.1,0.4-0.3,0.6-0.4c1.6-1.1,3.2-1.6,4.6-1.6
			c0.4,0,0.8,0.1,1.3,0.2l0.4,0.1c0.6,0,1.1,0.2,1.6,0.4c0.5,0.2,1,0.6,1.4,1c0.7,0.8,1.1,1.9,1.2,3.2V93c0,0.9-0.3,2.2-0.8,3.7
			l-0.4,1l-0.2,0.5l-0.1,0.3l-0.3,0.6l-0.3,0.6c-1.6,3-4,5.6-7,7.7c-0.1,0.1-0.2,0.2-0.3,0.3c-0.1,0.1-0.1,0.2-0.2,0.3l-0.2,0.3
			c-0.1,0.2-0.3,0.3-0.5,0.4c-1,0.4-1.9,0.9-2.8,1.5l-1.5,1l-1.5,0.9h-0.1l0.3,0.5c0.2,0.3,0.4,0.5,0.6,0.8l0.3,0.4l0.3,0.4
			c0.1,0,0.2,0,0.3-0.1l0.1-0.1c0,0,0.1-0.1,0.1-0.1c0.5,0.4,1.2,0.6,2.2,0.6c0.3,0,0.5,0,0.8-0.1c0.5,0,1.1-0.1,1.8-0.3l1.8-0.4
			c0.1,0,0.3-0.1,0.4-0.2c0.2-0.2,0.5-0.4,0.8-0.6l0.9-0.4c0.8-0.3,1.4-0.7,1.7-1.1l0.3,0.1l0.2-0.1h0.1c0.1,0,0.1,0,0.2,0.1
			c0.4-0.4,0.8-0.8,1.4-1.1l1.4-1c1.2-0.8,2.1-1.5,2.7-2.1c0.1-0.1,0.2-0.2,0.3-0.3c0.3-0.1,0.7-0.4,1.1-0.7l1-0.9
			c0.9-0.8,1.6-1.4,2-1.6v-0.1h-0.1l-0.1-0.1c0,0-0.1,0-0.1-0.1c0.6-0.8,1.6-2,2.9-3.8c1.7-2.1,2.7-3.5,3.1-4.3l0.3-0.1l0.1-0.1
			c0.1-0.3,0.4-0.5,0.8-0.6h0.1c0.3,0,0.7,0.2,1.1,0.7C245.2,96,245.6,96.8,246.1,97.7z M210.1,108.1c0,0.5,0.1,0.9,0.2,1.2V109
			c0-0.6,0.1-1.4,0.3-2.3c0.2-0.9,0.3-1.5,0.3-2c0-0.2,0-0.3-0.1-0.4c0,0.4-0.1,0.8-0.3,1.3l-0.3,1.3
			C210.2,107.3,210.1,107.7,210.1,108.1z M210.6,111.6c0.1,0.6,0.3,1,0.6,1.2c-0.2-0.4-0.3-0.8-0.3-1.2l-0.1-0.6
			c-0.1-0.3-0.2-0.7-0.3-1.5c0,0-0.1,0.1-0.1,0.2v0.1l0.1,1.1C210.5,111.2,210.5,111.4,210.6,111.6z M213.8,97.5
			c-1.2,1.9-2.1,4.1-2.8,6.3c1.1-2.7,2.5-5.5,4.4-8.4c0.2-0.2,0.4-0.5,0.6-0.8l0.4-0.4l0.4-0.4c0.6-0.6,0.9-1,0.9-1.1
			C216.3,94,215,95.6,213.8,97.5z M213.3,100.5l0.3-0.4l0.3-0.5c0.4-0.7,0.6-1.1,0.6-1.3v-0.1c-1.2,1.6-2.1,3.4-2.7,5.5
			c-0.4,1.5-0.6,2.9-0.6,4.3c0,0.8,0.1,1.5,0.2,2.3c0-0.4-0.1-0.8-0.1-1.1c0-2.3,0.5-4.9,1.6-7.8C213,101.1,213.1,100.8,213.3,100.5
			z M211.3,113.8l0.2,0.3c0.1,0.2,0.2,0.3,0.3,0.3h0.1c0,0-0.1-0.1-0.1-0.2l-0.1-0.4c-0.1-0.2-0.2-0.3-0.3-0.3c0,0-0.1,0-0.1,0.1
			L211.3,113.8z M212.3,113.5c0.3,0.8,0.8,1.4,1.5,1.6c-0.5-0.4-1-1-1.3-2l-0.3-0.5L212,112c-0.2-0.4-0.3-0.6-0.5-0.8l0.4,1.1
			L212.3,113.5z M212.4,115.2l0.1-0.2c0,0-0.1-0.1-0.1-0.1v-0.1c-0.1,0-0.2-0.1-0.3-0.2c0,0.1,0,0.1-0.1,0.2c0,0,0.1,0.1,0.1,0.1
			v0.1C212.2,115,212.3,115.1,212.4,115.2z M213.2,116.2l0.3,0.2l0.3,0.3c0.1,0.1,0.2,0.1,0.3,0.1c0.1,0,0.1,0,0.1-0.1l-0.2-0.1
			l-0.2-0.2c-0.2-0.1-0.4-0.3-0.6-0.4V116.2z M215.3,116.4c0.3,0.1,0.6,0.2,0.8,0.2c0.1,0,0.3,0,0.4-0.1c-0.2,0-0.4-0.1-0.6-0.1
			l-0.5-0.3l-0.2-0.1l-0.3-0.1c-0.2-0.1-0.5-0.3-1.1-0.6v0.1c0,0.1,0.1,0.3,0.4,0.5C214.6,116,214.9,116.2,215.3,116.4z M219.1,96.5
			c-0.2,0.4-0.6,0.8-1.1,1.3l-0.6,0.6l-0.5,0.5l-0.1,0.2c-0.3,0.5-0.6,1.1-1,1.9l-1,1.9c-0.3,0.6-0.5,1.1-0.7,1.6
			c0.3-0.2,0.6-0.3,1.1-0.5c0.1,0,0.2-0.1,0.3-0.3l0.1-0.2l0.2-0.1c0.1,0,0.1-0.1,0.1-0.2c0,0,0-0.1-0.1-0.1
			c1.2-0.5,2.3-1.3,3.2-2.3l1.3-1.4c0.5-0.6,1-1.1,1.4-1.5c0.1-0.1,0.1-0.2,0.2-0.3c0.1-0.5,0.3-1,0.5-1.5l0.1-0.1l0.1-0.2l0.1-0.1
			c0,0,0.2,0,0.4-0.1c0.1,0,0.2-0.1,0.2-0.2l-0.1-0.1c-0.2-0.1-0.3-0.3-0.3-0.4v-0.5c0-0.3-0.1-0.4-0.3-0.4h-0.1
			c-0.2,0-0.4,0.1-0.5,0.3l-0.1,0.1h-0.1c-0.1-0.1-0.2-0.1-0.3-0.1c-0.1,0-0.2,0.1-0.3,0.2l-0.1,0.1l-0.2,0.1l-0.4,0.3l-0.7,0.5
			c0,0.1-0.1,0.1-0.1,0.2c0,0.1,0.1,0.2,0.3,0.3l-0.3,0.1h-0.3C219.5,96.1,219.3,96.2,219.1,96.5z M217.8,116.9c0.1,0,0.2,0,0.2-0.1
			h-0.3l-0.3-0.1h-0.1c-0.1,0-0.2,0-0.2,0.1v0.1H217.8z M218.7,116.9c0.1,0,0.2-0.1,0.3-0.1c0-0.1-0.1-0.1-0.1-0.2h-0.1
			c0,0-0.1,0-0.1-0.1l-0.3,0.1c0,0,0.1,0.1,0.1,0.1C218.6,116.8,218.6,116.9,218.7,116.9z M220.1,116.9c0-0.1,0.1-0.1,0.3-0.1
			l0.4-0.1c0.2,0,0.3-0.1,0.3-0.2v-0.1h-0.5c-0.2,0-0.4,0.1-0.6,0.2L220.1,116.9z"/>
		<path class="st1" d="M265.3,89.5l0.6,1c0.2,0.3,0.4,0.5,0.7,0.7l-1.1-0.4c-1.1-1.4-2.1-2.1-2.8-2.2h-0.2c-0.7,0-1.4,0.2-2.2,0.5
			l-1.1,0.5l-1.1,0.4c-1.3,1-2.6,2.2-3.9,3.8l-1.6,2l-1.7,2c-0.1,0.5-0.4,1.2-0.8,1.8l-0.5,0.7c-0.2,0.3-0.3,0.6-0.4,0.8
			c-0.2-0.1-0.3-0.1-0.5-0.1h-0.2c0.5,0.3,0.7,0.5,0.7,0.7c0,0.2-0.2,0.3-0.7,0.3c0.2,0.1,0.3,0.3,0.3,0.4c0,0.1-0.1,0.3-0.2,0.4
			l-0.2,0.1l-0.1,0.2c0,0-0.1,0.1-0.1,0.1c0,0.1,0.1,0.2,0.2,0.3c0,0-0.1,0-0.3-0.1h-0.3v0.1c0.2,0.2,0.3,0.3,0.3,0.5
			c0,0,0,0.1-0.1,0.2l-0.2,0.3l-0.3,0.3v0.1l-0.4,0.5l-0.1,0.1v0.1l-0.1,0.1c0,0-0.1,0.1-0.2,0.1l0.1,0.1v0.6
			c-0.3,0.3-0.6,1.1-0.8,2.4c0,0,0,0.1-0.1,0.1H246c-0.1,0-0.2-0.1-0.3-0.1c0,0-0.1,0-0.1,0.1c0.3,0.2,0.5,0.3,0.5,0.4v0.1
			c0,0.2-0.2,0.3-0.6,0.3c0.2,0.1,0.3,0.2,0.3,0.3v0.1c0,0,0.1,0.1,0.2,0.2c-0.3,0.6-0.6,1.4-0.9,2.5l-0.3,1.3
			c-0.1,0.5-0.3,1-0.4,1.5c0,0.1-0.1,0.1-0.2,0.1l-0.1-0.1h-0.1c0.1,0.1,0.2,0.2,0.2,0.4v0.3c0,0.1,0.1,0.1,0.2,0.2
			c-0.2,0.4-0.3,1-0.5,1.6l-0.5,1.6c-0.4,1.3-1.1,2.3-1.9,3.1c-0.3,0-0.7,0-1.1-0.1v0.1c0,0.1-0.1,0.2-0.2,0.2h-0.1
			c-0.3,0-0.6-0.2-1-0.4l-0.1-0.1c-0.4-0.1-0.8-0.2-1.1-0.3c-0.5-0.1-0.8-0.3-1.1-0.5c-0.2-0.2-0.3-0.3-0.3-0.5c-0.7-0.3-1-0.7-1-1
			c0.1,0,0.1-0.1,0.2-0.3v-0.4l0.1-0.1l0.1-0.1l0.1-0.1c0.1-0.1,0.1-0.1,0.2-0.1h0.1c0-0.6,0.1-1.3,0.4-2.1l0.2-0.4l0.1-0.5
			c0-0.2,0.1-0.4,0.1-0.6c0-0.2,0-0.3-0.1-0.4v-0.1c0.4-0.8,0.8-1.7,1.2-2.7l0.4-1.5l0.4-1.5c0.6-2.6,1.2-4.5,1.7-5.7v-0.1
			c0-0.2-0.1-0.4-0.1-0.6c0-0.6,0.1-1.3,0.3-2.2l0.3-1.4c0.1-0.5,0.1-1,0.1-1.5v-0.1c0.1-0.2,0.2-0.4,0.3-0.6l-0.1-0.7v-0.4
			c0-0.4,0.1-0.7,0.3-1v-1.1c0-0.8,0-1.6,0.1-2.5l0.2-1.7l0.2-1.7l-0.1-0.1l-0.3-0.3v-0.2c0.1-0.2,0.2-0.4,0.2-0.7
			c0-0.1,0-0.3-0.1-0.4c-0.1-0.3-0.3-0.7-0.5-1.2v-0.1c0-0.1,0.1-0.2,0.4-0.3c0.2,0,0.4-0.1,0.6-0.1h0.4l0.4,0.1
			c0.3,0,0.6,0,0.8,0.1c0.3,0.1,0.8,0.2,1.5,0.3l0.8,0.1l0.7,0.1c0.3,0.1,0.5,0.2,0.6,0.3c0.3,0.4,0.5,0.8,0.5,1.1
			c0,0.2,0,0.4-0.1,0.6v0.1c0,0,0,0.1,0.1,0.1l0.1,0.1v0.1c0,0,0.1,0.1,0.2,0.1c-0.1,0.3-0.2,0.5-0.3,0.9l-0.1,0.8
			c0,0.8-0.1,1.4-0.4,1.8v0.1c0.1,0.2,0.1,0.3,0.1,0.5v0.2c0,0.3-0.1,0.5-0.4,0.7c-0.1,0-0.1,0.1-0.1,0.1c0,0,0,0.1,0.1,0.1l0.2,0.3
			c2.1-2.7,4.6-4.9,7.5-6.5c0.1,0.1,0.1,0.2,0.1,0.3c0,0.2-0.1,0.4-0.4,0.5l-0.6,0.2c-0.3,0.1-0.4,0.2-0.6,0.3l-1.1,1l-1.2,1
			c-0.9,0.8-1.6,1.5-1.9,2c-0.4,0.2-0.7,0.6-1.1,1.1l-0.4,0.6l-0.4,0.6l-0.1,0.3l-0.1,0.3v0.2c0,0.2,0,0.3,0.1,0.5v0.1
			c0,0.1,0,0.1-0.1,0.2c-0.1,0.1-0.2,0.3-0.3,0.6l-0.1,0.4v0.3l0.3-0.6c0.1,0,0.2,0.1,0.3,0.1l0.1,0.1c0.1,0.1,0.2,0.1,0.3,0.1
			c0-0.1-0.1-0.2-0.3-0.3l-0.2-0.1l-0.2-0.1c0.3-0.2,0.5-0.5,0.7-0.9l0.6-1c0.4-0.8,0.8-1.2,1.3-1.5l-0.2-0.2l-0.2-0.1
			c-0.1-0.1-0.3-0.1-0.4-0.1c0,0,0-0.1,0.1-0.1c0.1,0,0.2,0,0.3,0.1l0.3,0.2h0.2v-0.1c0,0,0-0.1,0.1-0.1l0.3-0.2
			c0.1-0.1,0.2-0.2,0.2-0.3c0-0.1-0.1-0.2-0.2-0.3c0.4,0.2,0.6,0.3,0.8,0.3c0.1,0,0.1,0,0.1-0.1c-0.1,0-0.3-0.1-0.6-0.3
			c0.1-0.2,0.3-0.4,0.6-0.7l0.4-0.3l0.4-0.3c0.5-0.4,0.7-0.9,0.7-1.4v-0.3c0.1,0,0.1,0,0.2,0.1l0.1,0.1c0.1,0.1,0.2,0.2,0.3,0.2
			c0-0.1,0-0.1,0.1-0.2l0.2-0.2c0.1-0.1,0.2-0.2,0.2-0.3c0,0,0-0.1-0.1-0.1c0,0-0.1,0.1-0.2,0.1c-0.1,0-0.2,0-0.3-0.1
			c0.2-0.2,0.4-0.3,0.6-0.3h0.2l-0.1,0.1l-0.1,0.1v0.1l0.1,0.1c0.3,0,0.5-0.1,0.6-0.3c0.1-0.1,0.2-0.2,0.2-0.4v-0.1
			c-0.1,0-0.1,0-0.2,0.1l-0.1,0.1c0,0,0,0.1-0.1,0.1c0,0-0.1,0-0.2-0.1c0-0.1,0.1-0.1,0.3-0.2l0.2-0.1c0,0,0.1-0.1,0.1-0.1
			c0.2,0.1,0.3,0.2,0.3,0.2h0.1l0.1-0.1c0,0,0-0.1-0.1-0.1l-0.1-0.1l-0.2-0.1c0.1-0.1,0.2-0.1,0.3-0.1h0.1l0.3,0.1h0.3
			c0,0-0.1-0.1-0.1-0.1c0,0,0.1-0.1,0.3-0.1c0.1,0,0.2,0,0.3-0.1c0-0.1-0.1-0.2-0.3-0.4c0.2,0.2,0.4,0.3,0.6,0.3c0,0,0.1,0,0.2-0.1
			l0.3-0.1l0.3-0.1l-0.1-0.1l-0.1-0.1c-0.1-0.1-0.2-0.2-0.2-0.3l0.2,0.1l0.3,0.1c0.1,0,0.2,0.1,0.3,0.1c0.1,0,0.1,0,0.1-0.1
			c-0.1-0.1-0.2-0.1-0.2-0.2c0-0.1,0-0.1,0.1-0.1h0.5l-0.1,0.1l-0.1,0.1c0,0-0.1,0-0.1,0.1l0.1,0.1c0.4-0.3,1-0.4,1.6-0.5
			c0.5-0.1,1.1-0.2,1.7-0.2c-0.3-0.1-0.7-0.2-1.1-0.2c-0.4,0-0.9,0.1-1.4,0.2l-1.2,0.3c-0.5,0.1-0.8,0.1-1.1,0.1l0.2,0.3l0.2,0.2
			c0,0,0.1,0.1,0.1,0.2c0,0-0.1,0.1-0.2,0.1c-0.1-0.1-0.2-0.1-0.2-0.2v-0.1l0.1-0.1c0-0.1-0.1-0.1-0.3-0.2c-0.1,0-0.2,0.1-0.3,0.1
			c-0.2,0-0.4-0.1-0.6-0.2c1.6-0.8,3-1.1,4.3-1.1c0.8,0,1.6,0.3,2.3,0.7c0.8,0.4,1.5,1,2.2,1.8c0.1,0,0.3,0.2,0.6,0.7l0.4,0.6
			C265.2,89.3,265.3,89.4,265.3,89.5z M243.9,110.5c0.1,0,0.1,0,0.2-0.1c0,0,0.1-0.1,0.1-0.1c0,0,0-0.1-0.1-0.1L243.9,110.5z
			 M245.1,106.8l-0.1,0.3l0.2,0.1c0,0,0.1-0.1,0.1-0.2v-0.1H245.1z M245.1,107.4c0.1,0,0.2,0.1,0.3,0.1h0.1l0.1-0.1l0.1-0.1h-0.3
			C245.2,107.4,245.1,107.4,245.1,107.4z M245.7,105L245.7,105h-0.1H245.7z M246.5,105C246.5,105,246.6,105,246.5,105
			c0-0.1-0.1-0.1-0.2-0.2c0,0,0,0.1-0.1,0.1C246.4,104.9,246.4,105,246.5,105z M247,102.4c-0.1,0-0.2-0.1-0.3-0.1
			c-0.1,0-0.1,0-0.1,0.1c0.1,0.1,0.2,0.1,0.3,0.1h0.1L247,102.4L247,102.4z M246.8,100.3c0.1,0,0.1,0,0.1-0.1c0,0,0-0.1-0.1-0.2
			c0-0.1,0.1-0.1,0.1-0.2s0-0.1-0.1-0.1l-0.1,0.1c-0.1,0-0.1,0.1-0.2,0.2v0.3H246.8z M246.6,104c0.2,0.1,0.3,0.1,0.4,0.1l0.1-0.1
			V104c-0.1,0-0.2-0.1-0.3-0.1l-0.1,0.1H246.6z M247.3,103.7c-0.1-0.1-0.2-0.1-0.3-0.1l-0.1,0.1l-0.1-0.1l0.1,0.1l0.3,0.1
			L247.3,103.7z M247.4,97.3c-0.1,0-0.1-0.1-0.2-0.1v0.1l0.1,0.1c0,0,0,0.1-0.1,0.1l0.1,0.1c0,0,0.1,0,0.1-0.1V97.3z M247.2,103.3
			c0.1,0,0.2,0.1,0.3,0.1h0.1l0.2,0.1c0,0,0-0.1-0.1-0.1l-0.2-0.1L247.2,103.3C247.2,103.2,247.2,103.2,247.2,103.3z M247.7,100.3
			c0.1,0,0.1,0,0.1-0.1l0.1-0.1l0.1-0.1c0,0,0.1,0,0.1,0.1c0,0-0.1-0.1-0.3-0.2l-0.3-0.1l-0.3-0.1l0.1,0.1l0.1,0.1
			c0,0,0.1,0.1,0.1,0.1l-0.1,0.1C247.6,100.3,247.7,100.3,247.7,100.3z M247.8,98.1c0.1,0,0.1,0.1,0.2,0.1c0,0,0-0.1-0.1-0.2
			l-0.1-0.1C247.7,97.9,247.8,98,247.8,98.1L247.8,98.1z M248.4,97.5C248.4,97.4,248.5,97.4,248.4,97.5l-0.3-0.3l-0.1,0.1
			L248.4,97.5z M248.2,100.8h0.2v-0.2c0,0,0.1-0.1,0.1-0.1h-0.1c-0.1,0-0.1,0-0.2,0.1V100.8L248.2,100.8z M248.8,101.7L248.8,101.7
			l-0.2-0.2l-0.2-0.1c0,0-0.1,0-0.1,0.1l0.1,0.1h0.1C248.6,101.7,248.7,101.7,248.8,101.7z M249.3,98.9l0.3-0.2l0.3-0.3
			c0-0.1,0.1-0.2,0.1-0.3c0-0.1-0.1-0.3-0.2-0.4l-0.1,0.3l-0.1,0.3C249.3,98.6,249.3,98.8,249.3,98.9z M249.4,93.7
			c0,0,0,0.1,0.1,0.1l0.1,0.1l0.1,0.1c0,0,0-0.1-0.1-0.1l-0.1-0.1L249.4,93.7z M249.8,96.2l-0.2-0.1v0.1l0.1,0.1l0.2,0.1v0.1h0.1
			l-0.1-0.1v-0.1L249.8,96.2L249.8,96.2L249.8,96.2z M250.2,97.2c-0.1,0-0.1,0-0.1,0.1l-0.1,0.2c0,0-0.1,0.1-0.2,0.1h0.2
			c0.2,0,0.3-0.1,0.3-0.2L250.2,97.2L250.2,97.2z M250.1,97.9L250.1,97.9l-0.2-0.1l-0.1-0.1c0,0,0,0.1,0.1,0.1L250.1,97.9
			L250.1,97.9z M250.6,95.1c-0.1-0.1-0.2-0.1-0.3-0.1c-0.1,0-0.2,0-0.3,0.1c0.2,0.1,0.3,0.1,0.4,0.1h0.1V95.1z M250.5,98.1
			c0.1,0,0.1,0,0.1-0.1l-0.1-0.1c0,0-0.1-0.1-0.3-0.1l-0.1,0.1l0.1,0.1v0.1C250.4,98.1,250.4,98.1,250.5,98.1z M251.9,94.9l0.1-0.1
			l0.1-0.1c0,0,0.1,0,0.1-0.1v-0.1c-0.5,0.2-0.9,0.5-1.2,1l-0.4,0.6l-0.4,0.6c0.3-0.2,0.7-0.5,1-0.9l0.3-0.5L251.9,94.9z M251,91.9
			c0.1,0,0.2,0.1,0.3,0.1s0.1,0,0.1-0.1c-0.1-0.1-0.1-0.1-0.2-0.1h-0.1L251,91.9L251,91.9z M251.8,93.3l0.1,0.1L251.8,93.3
			L251.8,93.3z M252.4,94c0.2,0.1,0.3,0.1,0.3,0.1s0.1,0,0.1-0.1l-0.1-0.1c0-0.1,0-0.1,0.1-0.1h-0.1c0,0-0.1,0-0.1,0.1l-0.1,0.1
			L252.4,94z M252.9,93.6L252.9,93.6l-0.1-0.1l-0.1-0.1c0,0,0,0.1,0.1,0.1H252.9z M252.9,91c0,0-0.1,0.1-0.1,0.1
			c0.1,0,0.2,0.1,0.3,0.1l0.1-0.1C253,91.1,252.9,91.1,252.9,91z M253.5,91.5c-0.3,0-0.6,0.3-0.8,0.7c0.2,0,0.4-0.1,0.5-0.3l0.1-0.2
			L253.5,91.5z M252.9,93.4h0.1c0.3,0,0.5-0.1,0.7-0.3l0.2-0.3l0.1-0.3c-0.2,0-0.4,0.1-0.6,0.3l-0.3,0.3L252.9,93.4z M254.2,91
			c-0.2,0-0.3-0.1-0.4-0.1c0,0-0.1,0.1-0.1,0.1v0.1h0.1c0.1,0,0.1,0,0.2-0.1l0.1-0.1L254.2,91z M254.3,92.4
			C254.3,92.4,254.3,92.4,254.3,92.4c0-0.1,0-0.1,0-0.2h-0.1c0,0-0.1,0-0.2,0.1C254.1,92.4,254.2,92.4,254.3,92.4z M254.7,90.4
			c-0.1,0-0.3-0.1-0.4-0.1l-0.1,0.1v0.1c0.1,0,0.2,0.1,0.3,0.1h0.1l0.1-0.1L254.7,90.4z M254.7,91.6c0.1,0,0.2,0.1,0.3,0.1
			c0.1,0,0.1,0,0.2-0.1v-0.1c0-0.1,0.1-0.1,0.1-0.1c-0.1,0-0.1-0.1-0.2-0.1c0,0-0.1,0-0.1,0.1l-0.1,0.2
			C254.8,91.5,254.7,91.5,254.7,91.6z M255.2,89.9c0,0-0.1-0.1-0.1-0.1c0,0-0.1,0-0.1,0.1h-0.1l-0.1,0.1L255.2,89.9z M255.1,91
			c0.1,0,0.2,0.1,0.3,0.1c0.1,0,0.3,0,0.4-0.1c0.1,0,0.1-0.1,0.1-0.2c0-0.1-0.1-0.2-0.2-0.3l-0.1,0.2l-0.1,0.1
			C255.3,90.9,255.2,91,255.1,91z M256.9,89.7c0.1,0,0.1,0,0.2-0.1l-0.1-0.1H257c-0.1,0-0.1,0.1-0.2,0.1c-0.2,0-0.4,0.1-0.6,0.3
			l-0.2,0.2l-0.3,0.3l0.2,0.1h0.1c0.2,0,0.3-0.1,0.4-0.3l0.2-0.3C256.7,89.9,256.8,89.8,256.9,89.7z M257.6,89.1
			c0.1,0.1,0.1,0.1,0.2,0.1l0.1-0.1l-0.1-0.1H257.6L257.6,89.1z M258.8,88.5l0.3,0.1c0.1,0,0.1,0,0.2-0.1c0,0,0-0.1-0.1-0.2
			c0,0-0.1-0.1-0.1-0.1l-0.1,0.1l-0.1,0.1C258.9,88.5,258.8,88.5,258.8,88.5c0-0.1-0.1-0.1-0.1-0.1
			C258.7,88.5,258.7,88.5,258.8,88.5z M261.1,87.7c0.1,0,0.2,0.1,0.3,0.1h0.2l0.2-0.1h0.3c-0.1,0-0.2-0.1-0.3-0.1h-0.2l-0.3,0.1
			H261.1z"/>
		<path class="st1" d="M292.6,99.3c0,0.2-0.1,0.5-0.4,0.8h-0.1c-0.3,0.2-0.9,0.6-1.7,1.4c-0.8,0.8-1.7,1.5-2.8,2.3l-1.5,1l-1.4,1
			c-2.5,1.7-4.3,3.1-5.4,4.1l-0.3,0.2c-2,1.2-3.9,2.4-5.6,3.6c0.3,1.1,0.4,2.1,0.4,3.2c0,0.4,0,0.8-0.1,1.3c-0.1,1-0.3,2-0.5,3.2
			l-0.4,1.5l-0.4,1.4c0,0.2-0.1,0.3-0.3,0.5c-0.1,0.2-0.3,0.4-0.6,0.8l-0.8,1c-0.6,0.8-1.1,1.5-1.3,2c-0.2,0.3-0.4,0.6-0.6,0.8
			l-1.1,0.6l-1.1,0.6c-0.8,0.4-1.7,0.7-2.6,0.9c-0.6,0.1-1.2,0.2-1.8,0.2c-0.3,0-0.6,0-1-0.1c-0.5-0.1-1-0.2-1.3-0.4
			c-0.4-0.2-0.8-0.4-1.1-0.7c-0.1-0.1-0.2-0.1-0.3-0.1h-0.3l-0.1-0.1c-0.1,0-0.3-0.1-0.4-0.3l-0.3-0.4l-0.3-0.4l-0.3-0.4l-0.2-0.4
			c-0.2-0.3-0.3-0.6-0.3-0.9l-0.1-0.4l-0.1-0.4c0-0.3-0.1-0.7-0.1-1.1c0-0.7,0.1-1.5,0.3-2.3c0.3-1,0.7-1.9,1.2-2.9
			c0.6-0.9,1.2-1.7,1.9-2.2c0.1-0.1,0.3-0.3,0.4-0.5c0.3-0.6,1-1.3,1.9-2l1.1-0.9c0.4-0.4,0.8-0.7,1-1.1h0.3l0.3-0.1
			c0.1,0,0.2-0.1,0.3-0.1c0,0,0.1,0,0.1,0.1c0.5-0.5,1-1,1.6-1.5l0.6-0.5c-0.3-0.7-0.7-1.4-1.2-2.1l-0.1-0.3c-0.2-0.6-0.5-1.2-1-1.9
			l-0.6-0.9l-0.7-0.9c-0.6-0.8-1-1.5-1.3-2c-0.4-0.9-0.7-1.8-0.9-2.6l-0.1-0.4c-0.4-1.2-0.6-2.4-0.6-3.6v-0.4c0-1.2,0.2-2.4,0.6-3.6
			s1.1-2.3,2-3.4c0.7-0.8,1.5-1.6,2.5-2.4c1.7-1.4,3.6-2.6,5.7-3.4c1.3-0.5,2.4-0.8,3.4-1c0.5-0.1,0.9-0.1,1.3-0.1
			c0.4,0,0.8,0,1.2,0.1c0.8,0.1,1.5,0.4,2.2,0.8l0.7,0.4c0.2,0.1,0.3,0.2,0.5,0.3c0.2,0.1,0.3,0.2,0.5,0.3c0.3,0.3,0.5,0.6,0.7,1
			c0.4,1,0.6,2,0.6,3c0,1-0.2,2.1-0.7,3.2c-0.3,0.6-0.6,1.4-1,2.2l-0.4,1l-0.4,0.8c-0.2,0.4-0.5,0.7-1,0.8h-0.3
			c-0.3,0-0.6-0.1-0.8-0.3l-0.3-0.3c-0.3-0.1-0.5-0.3-0.6-0.6c-0.1-0.4-0.4-0.9-0.8-1.5L276,93l-0.4-0.8c0-0.2-0.1-0.3-0.1-0.4
			c0-0.2,0-0.3,0.1-0.4l0.2-0.7l0.3-0.6l0.2-0.6l0.1-0.3v-0.1c0,0,0.1-0.1,0.2-0.3v-0.1h-0.1l-0.3,0.1c0,0,0.1-0.1,0.1-0.1
			c0,0,0-0.1-0.1-0.1c0-0.1-0.1-0.1-0.1-0.1c0,0-0.1-0.1-0.2-0.1c-0.1,0-0.2,0-0.3,0.1c-0.3,0-0.5,0.1-0.9,0.3
			c-0.6,0.2-1.3,0.5-2.1,0.8l-1.1,0.6l-1.1,0.5c-0.1,0.1-0.3,0.2-0.4,0.3c-0.4,0.5-0.8,1-1.2,1.4c-0.5,0.5-1.1,0.9-1.5,1.1
			c-0.3,0.1-0.4,0.3-0.4,0.5l-0.2,0.8l-0.1,0.8c-0.2,0.6-0.3,1.1-0.3,1.5v0.4c0,1.1,0.3,2.1,1,2.8c0.1,0.1,0.2,0.3,0.3,0.6
			c0.1,0.5,0.4,1.2,1,2.1l0.8,1.1c0.3,0.5,0.5,0.9,0.6,1.2c0.1,0.1,0.2,0.1,0.3,0.1c0.1,0,0.2-0.1,0.3-0.2l0.1,0.3l0.1,0.3v0.2
			c0,0.3,0.1,0.6,0.3,0.9c0.3,0.4,0.7,0.9,1,1.5l0.3-0.3c0.1-0.1,0.3-0.2,0.4-0.3c0.4-0.2,0.9-0.4,1.5-0.8l1.5-1
			c1.3-0.9,2.2-1.4,2.9-1.6l0.1-0.1c0,0,0-0.1-0.1-0.1h-0.1V104c0.4-0.3,0.9-0.7,1.3-1l0.6-0.4l0.6-0.4c0.9-0.6,1.8-1.3,2.5-1.9
			h-0.3c0.3-0.2,0.6-0.4,0.8-0.6l0.1,0.2c0-0.1,0.1-0.1,0.2-0.1l0.3-0.1c0.2-0.1,0.3-0.3,0.3-0.4V99l-0.3,0.2l-0.3,0.1l0.1-0.1v-0.1
			l1.3-1l1.2-1.1l0.3-0.3c1.1-0.4,2.1-1,2.9-1.8h0.3l0.1-0.1c0.3-0.3,0.7-0.5,1.1-0.5c0.5,0,0.9,0.3,1.3,1c0.4,0.6,0.5,1.4,0.3,2.2
			C292.7,98.4,292.6,99,292.6,99.3z M266.3,124.1c1.3-2.2,2-4.4,2-6.8l-1,0.7l-1,0.7c-0.7,0.6-1.3,1.1-1.8,1.5l-0.8,0.8l-0.4,0.4
			l-0.2,0.2c-0.1,0.1-0.1,0.1-0.2,0.2c-0.3,0.4-0.7,0.9-1,1.5c-0.3,0.5-0.5,1-0.6,1.5c0,0.2-0.1,0.4-0.1,0.5s0,0.2,0.1,0.3v0.1
			l0.1,0.1c0,0,0.1,0.1,0.1,0.1l0.1,0.1c0.2,0,0.3,0.1,0.5,0.1h0.3c0.3,0,0.7,0,1-0.1c0.8-0.2,1.7-0.7,2.7-1.7L266.3,124.1z
			 M263.5,99.8c0,0,0.1-0.1,0.1-0.1c0-0.1,0-0.1-0.1-0.2l-0.1-0.3l-0.1-0.3l-0.1-0.8l-0.1-0.8l-0.1-0.8c0-0.3-0.1-0.5-0.3-0.7
			c0,0.1,0.1,0.2,0.1,0.4c0,0.1,0,0.3-0.1,0.4v0.7l0.1,0.4l0.1,0.4c0,0.3,0.1,0.6,0.3,0.8l-0.1,0.1c0,0,0.1,0.1,0.1,0.1
			c0,0,0,0.1-0.1,0.1L263.5,99.8z M263.2,94.7v0.4c0,0,0,0.1,0.1,0.1h0.1v-0.3l0.1-0.3c0-0.1,0.1-0.2,0.1-0.3c0-0.1,0-0.1-0.1-0.1
			l-0.1,0.3L263.2,94.7z M263.5,93.1c0,0.1-0.1,0.3-0.1,0.4c0,0,0.1,0,0.2-0.1c0-0.1,0-0.2,0.1-0.2c0-0.1,0-0.3,0.1-0.4h-0.1
			l-0.1,0.1C263.6,93,263.6,93.1,263.5,93.1z M263.5,100.1l0.2,0.7l0.3,0.7c0.2,0.6,0.4,1.2,0.6,1.6c0.5,1.2,0.9,1.9,1.4,2.3
			c-0.5-0.6-0.9-1.5-1.3-2.7l-0.5-1.3C264,100.8,263.7,100.4,263.5,100.1z M264.6,99.4c0-0.1-0.1-0.2-0.1-0.3l-0.1-0.4
			c0-0.2-0.1-0.3-0.3-0.3h-0.1l0.1,0.3v0.3c0,0.2,0.1,0.4,0.3,0.7L264.6,99.4z M265,90.9l-0.2,0.2c-0.2,0.2-0.3,0.4-0.4,0.7h0.3
			l0.2-0.3l0.3-0.4c0.1-0.1,0.1-0.2,0.1-0.3c0,0,0-0.1-0.1-0.1L265,90.9z M264.7,100.8c0,0,0.1,0.1,0.1,0.1c0,0,0,0.1-0.1,0.1
			c0.1,0.1,0.1,0.2,0.2,0.3c0,0,0.1-0.1,0.1-0.1V101c-0.1-0.1-0.1-0.2-0.2-0.3C264.8,100.7,264.7,100.8,264.7,100.8z M265.6,102.4
			l-0.2-0.3c-0.1-0.2-0.1-0.3-0.2-0.3h-0.1c0,0,0,0.1,0.1,0.3l0.1,0.4c0.1,0.2,0.2,0.3,0.3,0.3c0,0,0.1,0,0.1-0.1
			C265.7,102.6,265.7,102.5,265.6,102.4z M267.2,106.2l-0.1-0.4l-0.1-0.3l-0.3-0.8c-0.3-0.6-0.5-1-0.8-1.1c0.1,0.2,0.2,0.4,0.3,0.6
			l0.3,0.6C266.6,105.3,266.9,105.8,267.2,106.2L267.2,106.2c0,0.1,0,0.2,0,0.3v0.1l0.3,0.4c0,0,0.1-0.1,0.1-0.1
			c0-0.1,0-0.1-0.1-0.2L267.2,106.2z M266.3,106.3l1.1,2.3l1.1,2.5c0.8,2,1.4,3.8,1.7,5.4c0,0.2,0.1,0.6,0.1,1.1v0.7l-0.1,0.6
			c0,0.7-0.1,1.2-0.1,1.5v0.2c0.2-1,0.3-1.9,0.3-2.7v-0.7c-0.1-1.2-0.3-2.5-0.7-3.7c-0.3-1.1-0.8-2.3-1.5-3.6l-0.9-1.8L266.3,106.3z
			 M270.4,112.9c0.4,1.8,0.6,3.5,0.6,4.9v0.4c-0.1,1.9-0.5,3.9-1.3,5.8c-0.1,0.2-0.3,0.5-0.6,1l-0.4,0.5l-0.4,0.6
			c-0.6,0.8-0.9,1.3-0.9,1.5v0.1c1.7-1.9,2.9-4.1,3.5-6.5c0.2-1,0.3-2,0.3-2.9c0-0.4,0-0.8-0.1-1.2
			C271.1,115.7,270.8,114.3,270.4,112.9z M270.2,112.3c-0.2-0.4-0.4-0.9-0.6-1.5l-0.4-1.4c-0.4-1.1-0.9-1.8-1.3-2.3
			c0.2,0.3,0.4,0.7,0.6,1.3l0.6,1.5C269.4,111.1,269.9,111.9,270.2,112.3z"/>
	</g>
</g>
</svg>
