<!-- Generator: Adobe Illustrator 23.0.4, SVG Export Plug-In  -->
<svg version="1.1" xmlns="http://www.w3.org/2000/svg" xmlns:xlink="http://www.w3.org/1999/xlink" x="0px" y="0px" width="222px"
	 height="251px" viewBox="0 0 442.7 500" style="enable-background:new 0 0 222.7 500;" xml:space="preserve">
<style type="text/css">
	.st0{fill:#9BB73E;}
</style>
<defs>
</defs>
<path class="st0" d="M41.2,420c0-1.4,1-2.7,2.7-2.7h2.7c1.4,0,2.1,0.7,2.4,1.7l1.4,4.8c1-1.4,6.9-7.5,17.5-7.5
	c7.9,0,12.7,3.1,16.5,8.6c1.4-1.4,7.9-8.6,18.5-8.6c16.5,0,20.6,11.7,20.6,25.7v27.5c0,1.4-1,2.7-2.7,2.7h-6.5c-1.7,0-2.7-1-2.7-2.7
	v-27.8c0-8.6-3.4-14.1-10.6-14.1c-8.2,0-12,5.5-13,6.5c0.3,1,0.3,4.5,0.3,7.2v28.1c0,1.4-1,2.7-2.4,2.7h-6.9c-1.4,0-2.7-1-2.7-2.7
	v-27.8c0-8.9-3.1-14.1-10.6-14.1c-8.2,0-12.4,6.2-12.7,7.9v34c0,1.4-1.4,2.7-2.7,2.7h-6.5c-1.4,0-2.7-1-2.7-2.7V420H41.2"/>
<path class="st0" d="M129.7,421.1c-0.7-1.7,0.3-3.4,2.4-3.4h7.9c0.7,0,2.1,0.7,2.4,1.4l12.7,37.4h0.3l15.4-37.4
	c0.3-1.4,1.4-1.4,2.7-1.4h7.2c2.4,0,3.1,1.7,2.4,3.4L150,498.3c-0.3,0.7-1,1.7-2.4,1.7H140c-2.1,0-3.4-1.7-2.4-3.8l11-26.4
	L129.7,421.1"/>
<path class="st0" d="M190.1,460.2l3.1-4.8c1-1.4,2.7-2.1,4.1-1c5.5,4.5,10,8.2,18.9,8.2c8.2,0,13.4-4.8,13.4-11
	c0-7.2-6.2-11.7-17.8-16.5c-12-5.1-21.6-11.3-21.6-25.1c0-9.3,7.2-22,25.7-22c11.7,0,20.6,6.2,22,6.9c1,0.7,1.7,2.4,0.7,4.1
	l-3.1,4.5c-1,1.4-2.4,2.4-4.1,1c-4.5-3.1-8.9-5.8-15.8-5.8c-10,0-13.4,6.2-13.4,10.6c0,6.9,5.1,11,15.1,14.8
	c13.7,5.5,25.4,12,25.4,26.4c0,12.4-11,22.3-26.4,22.3c-14.4,0-23.3-7.6-25.4-9.3C189.8,462.9,188.7,461.9,190.1,460.2"/>
<path class="st0" d="M250.9,420c0-1.4,1.4-2.7,2.7-2.7h6.5c1.4,0,2.7,1.4,2.7,2.7v29.2c0,8.9,3.8,13,10.6,13
	c7.9,0,12.4-6.5,12.7-8.9v-32.9c0-2.4,1-2.7,3.1-2.7h5.8c1.4,0,2.7,1.4,2.7,2.7v49.4c0,1.4-1.4,2.7-2.7,2.7h-2.7
	c-1.4,0-2.1-1-2.4-2.4l-1.4-3.8c-1,1-6.2,7.6-17.2,7.6c-16.1,0-20.2-10.6-20.2-25.1V420H250.9"/>
<path class="st0" d="M335.6,461.9c7.2,0,12.7-4.5,12.7-4.5v-22.6c-1-2.1-5.8-7.6-13-7.6c-9.3,0-15.4,7.9-15.4,17.2
	C319.5,454,326.7,461.9,335.6,461.9 M360,472.2c0,16.8-11,25.4-25.4,25.4c-8.9,0-16.5-4.5-18.9-6.9c-1-0.7-1-2.4-0.7-3.1l2.7-5.1
	c0.7-1.4,2.4-1.7,3.8-0.7c2.1,1.4,6.5,5.1,12.7,5.1c7.2,0,13.7-3.4,13.7-14.8v-3.1c-1,0.7-6.9,3.8-14.1,3.8
	c-14.8,0-26.4-12.7-26.4-28.5c0-15.4,10.6-28.5,25.7-28.5c10.3,0,16.1,5.5,17.2,6.5l1.4-3.4c0.3-1,0.7-1.7,2.1-1.7h3.1
	c1.4,0,2.7,1.4,2.7,2.7v52.2H360z"/>
<path class="st0" d="M373,420c0-1.4,1-2.7,2.7-2.7h2.7c1,0,2.1,0.7,2.4,1.7l1.4,4.8c1-1.4,6.5-7.9,16.5-7.9c5.1,0,11.7,1.4,10,5.1
	l-2.7,5.8c-0.7,1.4-2.1,2.1-3.4,1.4c-0.7-0.3-3.4-1-4.8-1c-7.9,0-12.4,6.5-12.7,7.2v34.7c0,2.4-1.4,2.7-3.8,2.7h-5.5
	c-1.4,0-2.7-1-2.7-2.7V420"/>
<path class="st0" d="M380.9,92.7h-10.3V103c0,5.8-4.5,10.3-10.3,10.3c-5.8,0-10.3-4.5-10.3-10.3V92.7h-10.3
	c-5.8,0-10.3-4.5-10.3-10.3c0-5.8,4.5-10.3,10.3-10.3H350V61.8c0-5.8,4.5-10.3,10.3-10.3c5.8,0,10.3,4.5,10.3,10.3v10.3h10.3
	c5.8,0,10.3,4.5,10.3,10.3C391.2,88.2,386.8,92.7,380.9,92.7 M308.5,227.9c-3.4,44.6-42.6,81-87.2,81c-44.6,0-83.7-36.4-87.2-81
	c-0.3-5.5,1.4-11.3,5.5-15.4c3.8-4.1,9.3-6.5,15.1-6.5h20.6v15.4c0,5.8,4.5,10.3,10.3,10.3h20.6c5.8,0,10.3-4.5,10.3-10.3v-15.4
	h72.1c5.8,0,11.3,2.4,15.1,6.5C307.1,216.5,309.2,222.4,308.5,227.9 M103,92.7H61.8c-5.8,0-10.3-4.5-10.3-10.3
	c0-5.8,4.5-10.3,10.3-10.3H103c5.8,0,10.3,4.5,10.3,10.3C113.2,88.2,108.8,92.7,103,92.7 M432.4,72.1h-21.6
	c-4.1-20.2-19.9-36-40.2-40.2V10.3c0-5.8-4.5-10.3-10.3-10.3C354.5,0,350,4.5,350,10.3v21.6c-23.3,4.8-41.2,25.4-41.2,50.4
	c0,10.6,3.1,20.2,8.6,28.5l-12.7,12.7c-22.3-19.2-51.5-30.9-83.4-30.9s-61.1,11.7-83.4,30.9l-12.7-12.7c5.5-8.2,8.6-17.8,8.6-28.5
	c0-28.5-23-51.5-51.5-51.5c-10.6,0-20.2,3.1-28.5,8.6L38.1,23.7c-4.1-4.1-10.6-4.1-14.4,0c-4.1,4.1-4.1,10.6,0,14.4l15.8,15.8
	c-3.4,5.5-6.2,11.7-7.5,18.2H10.3C4.5,72.1,0,76.5,0,82.4c0,5.8,4.5,10.3,10.3,10.3h21.6c4.8,23.3,25.4,41.2,50.4,41.2
	c10.6,0,20.2-3.1,28.5-8.6l12.7,12.7c-19.2,22.3-30.9,51.5-30.9,83.4c0,71,57.7,128.7,128.7,128.7S350,292.4,350,221.3
	c0-31.9-11.7-61.1-30.9-83.4l12.7-12.7c8.2,5.5,17.8,8.6,28.5,8.6c25.1,0,45.6-17.8,50.4-41.2h21.6c5.8,0,10.3-4.5,10.3-10.3
	C442.7,76.5,438.2,72.1,432.4,72.1"/>
</svg>
